<?xml version="1.0" encoding="UTF-8"?>
<svg width="10px" height="10px" viewBox="0 0 10 10" version="1.1" xmlns="http://www.w3.org/2000/svg" xmlns:xlink="http://www.w3.org/1999/xlink">
    <!-- Generator: Sketch 48.2 (47327) - http://www.bohemiancoding.com/sketch -->
    <title>Icon</title>
    <desc>Created with Sketch.</desc>
    <defs></defs>
    <g id="S-A-01" stroke="none" stroke-width="1" fill="none" fill-rule="evenodd" transform="translate(-785.000000, -928.000000)">
        <g id="Icon" transform="translate(785.000000, 928.000000)" fill="#5E6C84">
            <path d="M8.33333333,1.11111111 L8.89166667,1.11111111 C9.50388889,1.11111111 10,1.60833333 10,2.21888889 L10,8.89222222 C10,9.50388889 9.50444444,10 8.89166667,10 L1.10833333,10 C0.496111111,10 0,9.50333333 0,8.89222222 L0,2.21888889 C0,1.60722222 0.495555556,1.11111111 1.10833333,1.11111111 L1.66666667,1.11111111 L1.66666667,0.555555556 C1.66666667,0.248888889 1.91555556,0 2.22222222,0 C2.52888889,0 2.77777778,0.248888889 2.77777778,0.555555556 L2.77777778,1.11111111 L7.22222222,1.11111111 L7.22222222,0.555555556 C7.22222222,0.248888889 7.47111111,0 7.77777778,0 C8.08444444,0 8.33333333,0.248888889 8.33333333,0.555555556 L8.33333333,1.11111111 Z M1.11111111,3.33333333 L1.11111111,8.33333333 C1.11111111,8.64015819 1.35984181,8.88888889 1.66666667,8.88888889 L8.33333333,8.88888889 C8.64015819,8.88888889 8.88888889,8.64015819 8.88888889,8.33333333 L8.88888889,3.33333333 L1.11111111,3.33333333 Z M2.22222222,5.55555556 L2.22222222,4.44388889 L3.33333333,4.44388889 L3.33333333,5.55555556 L2.22222222,5.55555556 Z M6.66666667,5.55555556 L6.66666667,4.44388889 L7.77777778,4.44388889 L7.77777778,5.55555556 L6.66666667,5.55555556 Z M4.44444444,5.55555556 L4.44444444,4.44388889 L5.55611111,4.44388889 L5.55611111,5.55555556 L4.44444444,5.55555556 Z M2.22222222,7.77777778 L2.22222222,6.66666667 L3.33333333,6.66666667 L3.33333333,7.77777778 L2.22222222,7.77777778 Z M4.44444444,7.77777778 L4.44444444,6.66666667 L5.55611111,6.66666667 L5.55611111,7.77777778 L4.44444444,7.77777778 Z M6.66666667,7.77777778 L6.66666667,6.66666667 L7.77777778,6.66666667 L7.77777778,7.77777778 L6.66666667,7.77777778 Z" id="Combined-Shape"></path>
        </g>
    </g>
</svg>