<?xml version="1.0" encoding="UTF-8"?>
<svg width="11px" height="12px" viewBox="0 0 11 12" version="1.1" xmlns="http://www.w3.org/2000/svg" xmlns:xlink="http://www.w3.org/1999/xlink">
    <!-- Generator: Sketch 48.2 (47327) - http://www.bohemiancoding.com/sketch -->
    <title>noun_771765_cc</title>
    <desc>Created with Sketch.</desc>
    <defs></defs>
    <g id="S-A-01" stroke="none" stroke-width="1" fill="none" fill-rule="evenodd" transform="translate(-825.000000, -946.000000)">
        <g id="noun_771765_cc" transform="translate(825.000000, 946.000000)" fill="#5E6C84" fill-rule="nonzero">
            <g id="Group">
                <path d="M9.9127907,7.2875 L9.9127907,4.05 L9.9127907,2.7 C9.9127907,1.875 9.22209302,1.2 8.37790698,1.2 L8.25,1.2 L8.25,0.775 C8.25,0.3625 7.90465116,0.025 7.46976744,0.025 C7.03488372,0.025 6.68953488,0.3625 6.68953488,0.775 L6.68953488,1.2 L3.21046512,1.2 L3.21046512,0.775 C3.21046512,0.3625 2.86511628,0.025 2.43023256,0.025 C1.99534884,0.025 1.6627907,0.3625 1.6627907,0.775 L1.6627907,1.2 L1.53488372,1.2 C0.690697674,1.2 0,1.875 0,2.7 L0,4.05 L0,9.375 C0,10.2 0.690697674,10.875 1.53488372,10.875 L6.15232558,10.875 C6.63837209,11.5375 7.43139535,11.975 8.32674419,11.975 C9.79767442,11.9875 11,10.8125 11,9.375 C11,8.525 10.5651163,7.7625 9.9127907,7.2875 Z M8.32674419,11.4875 C7.1372093,11.4875 6.17790698,10.5375 6.17790698,9.3875 C6.17790698,8.2375 7.15,7.2875 8.32674419,7.2875 C9.51627907,7.275 10.4883721,8.2125 10.4883721,9.375 C10.4883721,10.5375 9.51627907,11.4875 8.32674419,11.4875 Z M0.511627907,4.05 L9.40116279,4.05 L9.40116279,6.9875 C9.06860465,6.85 8.71046512,6.7625 8.32674419,6.7625 C6.85581395,6.7625 5.66627907,7.925 5.66627907,9.3625 C5.66627907,9.7125 5.74302326,10.05 5.87093023,10.3625 L1.53488372,10.3625 C0.972093023,10.3625 0.511627907,9.9125 0.511627907,9.3625 L0.511627907,4.05 Z M2.44302326,0.5125 C2.58372093,0.5125 2.71162791,0.625 2.71162791,0.7625 L2.71162791,2.1 C2.71162791,2.2375 2.59651163,2.3625 2.44302326,2.3625 C2.28953488,2.3625 2.1744186,2.2625 2.1744186,2.1125 L2.1744186,0.775 C2.1744186,0.6375 2.30232558,0.5125 2.44302326,0.5125 Z M7.46976744,0.5125 C7.61046512,0.5125 7.73837209,0.625 7.73837209,0.7625 L7.73837209,2.1 C7.73837209,2.2375 7.62325581,2.3625 7.46976744,2.3625 C7.31627907,2.3625 7.20116279,2.25 7.20116279,2.1 L7.20116279,0.775 C7.21395349,0.6375 7.32906977,0.5125 7.46976744,0.5125 Z" id="Shape"></path>
                <path d="M6.93255814,9.875 L8.40348837,9.875 C8.54418605,9.875 8.65930233,9.7625 8.65930233,9.625 L8.65930233,7.7125 C8.65930233,7.575 8.54418605,7.4625 8.40348837,7.4625 C8.2627907,7.4625 8.14767442,7.575 8.14767442,7.7125 L8.14767442,9.375 L6.93255814,9.375 C6.79186047,9.375 6.67674419,9.4875 6.67674419,9.625 C6.67674419,9.7625 6.79186047,9.875 6.93255814,9.875 Z" id="Shape"></path>
            </g>
        </g>
    </g>
</svg>