<?xml version="1.0" encoding="UTF-8"?>
<svg width="32px" height="26px" viewBox="0 0 32 26" version="1.1" xmlns="http://www.w3.org/2000/svg" xmlns:xlink="http://www.w3.org/1999/xlink">
    <!-- Generator: Sketch 48.2 (47327) - http://www.bohemiancoding.com/sketch -->
    <title>noun_433822_cc</title>
    <desc>Created with Sketch.</desc>
    <defs></defs>
    <g id="T-B-05" stroke="none" stroke-width="1" fill="none" fill-rule="evenodd" transform="translate(-1783.000000, -576.000000)">
        <g id="noun_433822_cc" transform="translate(1799.000000, 589.000000) scale(1, -1) translate(-1799.000000, -589.000000) translate(1783.000000, 576.000000)" fill="#FFFFFF" fill-rule="nonzero">
            <path d="M9.97514104,-3 C9.55929689,-3 9.14145412,-2.82347705 8.82417093,-2.50080689 L3.47554504,2.93867671 C2.84098407,3.58401704 2.8419861,4.63336035 3.47554504,5.27972028 L8.82417093,10.7364174 C9.45772987,11.3827763 10.4915502,11.3817594 11.1261112,10.7364174 C11.7606721,10.0910765 11.7606727,9.04071474 11.1261112,8.39537386 L8.5364284,5.76169984 C18.044007,5.76169984 25.750202,15.4271538 25.750202,27.3474987 C25.7502074,28.3209911 26.4776964,29 27.375101,29 C28.2725056,29 29.0000054,28.3209911 29,27.3474987 C29,13.6018509 19.8355296,2.45669715 8.5364284,2.45669715 L11.1261112,-0.176976869 C11.7606721,-0.822317203 11.7606775,-1.85546545 11.1261112,-2.50080689 C10.8088334,-2.8234776 10.3909906,-3 9.97514104,-3 Z" id="Shape" transform="translate(16.000000, 13.000000) scale(1, -1) rotate(90.000000) translate(-16.000000, -13.000000) "></path>
        </g>
    </g>
</svg>