<?xml version="1.0" encoding="UTF-8"?>
<svg width="10px" height="10px" viewBox="0 0 10 10" version="1.1" xmlns="http://www.w3.org/2000/svg" xmlns:xlink="http://www.w3.org/1999/xlink">
    <!-- Generator: Sketch 48.2 (47327) - http://www.bohemiancoding.com/sketch -->
    <title>clone_button</title>
    <desc>Created with Sketch.</desc>
    <defs></defs>
    <g id="S-A-02" stroke="none" stroke-width="1" fill="none" fill-rule="evenodd" transform="translate(-1033.000000, -597.000000)">
        <g id="clone_button" transform="translate(1033.000000, 597.000000)" fill="#172B4D" stroke="#172B4D">
            <g id="noun_885030_cc" transform="translate(0.500000, 0.500000)">
                <path d="M3.39285714,0 C2.94285714,0 2.57142857,0.395284553 2.57142857,0.874186992 L2.57142857,1.1402439 L0.821428571,1.1402439 C0.371428571,1.1402439 0,1.53552846 0,2.01443089 L0,8.47581301 C0,8.95471545 0.371428571,9.35 0.821428571,9.35 L5.10714286,9.35 C5.55714286,9.35 5.92857143,8.95471545 5.92857143,8.47581301 L5.92857143,8.2097561 L7.67857143,8.2097561 C8.12857143,8.2097561 8.5,7.81447154 8.5,7.33556911 L8.5,1.94598654 C8.5,1.71033613 8.41425786,1.4899187 8.257115,1.33028455 L7.25,0.258484977 C7.09285714,0.0912492041 6.88574221,0 6.6714565,0 L3.39285714,0 Z M3.39285714,0.22804878 L6.6714565,0.22804878 C6.83574221,0.22804878 6.98574214,0.296463415 7.10002786,0.418089431 L8.10714286,1.48988898 C8.22142857,1.61151499 8.28571429,1.77114914 8.28571429,1.94598654 L8.28571429,7.33556911 C8.28571429,7.69284553 8.01428571,7.98170732 7.67857143,7.98170732 L5.92857143,7.98170732 L5.92857143,6.68943089 L7.60714286,6.68943089 C7.66428571,6.68943089 7.71428571,6.63621951 7.71428571,6.5754065 C7.71428571,6.5145935 7.66428571,6.46138211 7.60714286,6.46138211 L5.92857143,6.46138211 L5.92857143,5.16910569 L7.60714286,5.16910569 C7.66428571,5.16910569 7.71428571,5.11589431 7.71428571,5.0550813 C7.71428571,4.99426829 7.66428571,4.94105691 7.60714286,4.94105691 L5.92857143,4.94105691 L5.92857143,3.08623044 C5.92857143,2.85058003 5.84282921,2.6301626 5.68568636,2.47052846 L4.67857143,1.39872891 C4.52142857,1.23149314 4.31431364,1.1402439 4.10002793,1.1402439 L2.78571429,1.1402439 L2.78571429,0.874186992 C2.78571429,0.516910569 3.05714286,0.22804878 3.39285714,0.22804878 Z M0.821428571,1.36829268 L4.10002793,1.36829268 C4.26431364,1.36829268 4.41431364,1.43670732 4.52859936,1.55833333 L5.53571429,2.63013288 C5.65,2.7517589 5.71428571,2.91139304 5.71428571,3.08623044 L5.71428571,8.47581301 C5.71428571,8.83308943 5.44285714,9.12195122 5.10714286,9.12195122 L0.821428571,9.12195122 C0.485714286,9.12195122 0.214285714,8.83308943 0.214285714,8.47581301 L0.214285714,2.01443089 C0.214285714,1.65715447 0.485714286,1.36829268 0.821428571,1.36829268 Z M1.17857143,6.08130081 C1.12142857,6.08130081 1.07142857,6.1345122 1.07142857,6.1953252 C1.07142857,6.25613821 1.12142857,6.30934959 1.17857143,6.30934959 L4.75,6.30934959 C4.80714286,6.30934959 4.85714286,6.25613821 4.85714286,6.1953252 C4.85714286,6.1345122 4.80714286,6.08130081 4.75,6.08130081 L1.17857143,6.08130081 Z M1.17857143,7.60162602 C1.12142857,7.60162602 1.07142857,7.6548374 1.07142857,7.71565041 C1.07142857,7.77646341 1.12142857,7.8296748 1.17857143,7.8296748 L4.75,7.8296748 C4.80714286,7.8296748 4.85714286,7.77646341 4.85714286,7.71565041 C4.85714286,7.6548374 4.80714286,7.60162602 4.75,7.60162602 L1.17857143,7.60162602 Z" id="Shape" stroke-width="0.2" fill-rule="nonzero"></path>
            </g>
        </g>
    </g>
</svg>