<?xml version="1.0" encoding="UTF-8"?>
<svg width="6px" height="6px" viewBox="0 0 6 6" version="1.1" xmlns="http://www.w3.org/2000/svg" xmlns:xlink="http://www.w3.org/1999/xlink">
    <!-- Generator: Sketch 48.2 (47327) - http://www.bohemiancoding.com/sketch -->
    <title>noun_355706_cc</title>
    <desc>Created with Sketch.</desc>
    <defs></defs>
    <g id="S-A-02" stroke="none" stroke-width="1" fill="none" fill-rule="evenodd" transform="translate(-1058.000000, -659.000000)">
        <g id="noun_355706_cc" transform="translate(1058.000000, 659.000000)" fill="#FFFFFF" fill-rule="nonzero">
            <path d="M5.8094602,4.88911959 L3.92023364,2.99973124 L5.80895435,1.1108488 C6.06308118,0.8567002 6.06308118,0.444712615 5.80895435,0.190564019 C5.55476428,-0.0635213398 5.14293844,-0.0635213398 4.88874837,0.190564019 L3.00002766,2.07944647 L1.11130695,0.190564019 C0.857180118,-0.0635213398 0.445227811,-0.0635213398 0.191100977,0.190564019 C-0.0630258577,0.444712615 -0.0630258577,0.8567002 0.191100977,1.1108488 L2.07982169,2.99973124 L0.190595126,4.88911959 C-0.0635317085,5.14326818 -0.0635317085,5.55525577 0.190595126,5.80940436 C0.317626927,5.93644704 0.484178328,6 0.650666498,6 C0.817154668,6 0.983706069,5.93644704 1.11073787,5.80940436 L3.00002766,3.92001602 L4.88925423,5.80940436 C5.01634926,5.93644704 5.18283743,6 5.3493256,6 C5.51581377,6 5.68236517,5.93644704 5.80939697,5.80940436 C6.0635238,5.55525577 6.0635238,5.14326818 5.8094602,4.88911959 Z" id="Shape"></path>
        </g>
    </g>
</svg>