<?xml version="1.0" encoding="UTF-8"?>
<svg width="14px" height="14px" viewBox="0 0 14 14" version="1.1" xmlns="http://www.w3.org/2000/svg" xmlns:xlink="http://www.w3.org/1999/xlink">
    <!-- Generator: Sketch 48.2 (47327) - http://www.bohemiancoding.com/sketch -->
    <title>noun_65508_cc</title>
    <desc>Created with Sketch.</desc>
    <defs></defs>
    <g id="S-A-04" stroke="none" stroke-width="1" fill="none" fill-rule="evenodd" transform="translate(-861.000000, -498.000000)">
        <g id="noun_65508_cc" transform="translate(861.000000, 498.000000)" fill="#5E6C84" fill-rule="nonzero">
            <g id="Group">
                <path d="M1.07033333,13.7386667 C0.858333333,13.7386667 0.646333333,13.6576667 0.484333333,13.496 C0.160666667,13.1726667 0.160666667,12.6476667 0.484333333,12.324 L12.3346667,0.473666667 C12.6583333,0.15 13.1826667,0.15 13.5066667,0.473666667 C13.8303333,0.797 13.8303333,1.322 13.5066667,1.64566667 L1.65633333,13.496 C1.49433333,13.658 1.28233333,13.7386667 1.07033333,13.7386667 Z" id="Shape"></path>
                <path d="M12.9206667,13.7386667 C12.7086667,13.7386667 12.4966667,13.6576667 12.3346667,13.496 L0.484333333,1.64566667 C0.160666667,1.32233333 0.160666667,0.797333333 0.484333333,0.473666667 C0.808,0.15 1.33233333,0.15 1.65633333,0.473666667 L13.5066667,12.324 C13.8303333,12.6473333 13.8303333,13.1723333 13.5066667,13.496 C13.3446667,13.658 13.1326667,13.7386667 12.9206667,13.7386667 Z" id="Shape"></path>
            </g>
        </g>
    </g>
</svg>