<?xml version="1.0" encoding="UTF-8"?>
<svg width="24px" height="26px" viewBox="0 0 24 26" version="1.1" xmlns="http://www.w3.org/2000/svg" xmlns:xlink="http://www.w3.org/1999/xlink">
    <!-- Generator: Sketch 48.2 (47327) - http://www.bohemiancoding.com/sketch -->
    <title>noun_1234864_cc</title>
    <desc>Created with Sketch.</desc>
    <defs></defs>
    <g id="S-C-03" stroke="none" stroke-width="1" fill="none" fill-rule="evenodd" transform="translate(-387.000000, -947.000000)">
        <g id="noun_1234864_cc" transform="translate(387.000000, 947.000000)" fill="#FFFFFF" fill-rule="nonzero">
            <path d="M20.0443136,7.00002027 L3.96085503,7.00002027 C3.68774179,6.99822459 3.42695222,7.11583365 3.24444706,7.32310094 C3.0619419,7.53036823 2.97519909,7.80744441 3.00615824,8.08424941 L4.59731956,22.257137 C4.83525816,24.3898235 6.60466093,26.0005577 8.7088804,25.9999999 L15.560421,25.9999999 C17.6933981,25.9997186 19.4765341,24.3452556 19.6783465,22.1792283 L20.9958281,8.06477224 C21.0209771,7.79113819 20.9316093,7.51940359 20.749771,7.3166034 C20.5679327,7.1138032 20.3105551,6.99882035 20.0411313,7.00002027 L20.0443136,7.00002027 Z" id="Shape"></path>
            <path d="M16.2987634,2.23785166 C16.2987634,1.00192032 15.2858045,0 14.0362563,0 L9.96374368,0 C8.71419555,0 7.70123665,1.00192032 7.70123665,2.23785166 L7.70123665,3.08184143 L0.5,3.08184143 L0.5,5 L23.5,5 L23.5,3.08184143 L16.2987634,3.08184143 L16.2987634,2.23785166 Z M14.3594716,3.08184143 L9.64052839,3.08184143 L9.64052839,2.23785166 C9.64052839,2.06129004 9.7852368,1.91815857 9.96374368,1.91815857 L14.0362563,1.91815857 C14.2147632,1.91815857 14.3594716,2.06129004 14.3594716,2.23785166 L14.3594716,3.08184143 Z" id="Shape"></path>
        </g>
    </g>
</svg>