<?xml version="1.0" encoding="UTF-8"?>
<svg width="9px" height="9px" viewBox="0 0 9 9" version="1.1" xmlns="http://www.w3.org/2000/svg" xmlns:xlink="http://www.w3.org/1999/xlink">
    <!-- Generator: Sketch 48.2 (47327) - http://www.bohemiancoding.com/sketch -->
    <title>noun_1076168_cc</title>
    <desc>Created with Sketch.</desc>
    <defs></defs>
    <g id="S-A-02" stroke="none" stroke-width="1" fill="none" fill-rule="evenodd" transform="translate(-1835.000000, -558.000000)">
        <g id="Group-8" transform="translate(1809.000000, 554.000000)" fill="#172B4D" fill-rule="nonzero">
            <g id="noun_1076168_cc" transform="translate(26.500000, 4.000000)">
                <path d="M5.72972973,1.07142857 C5.72972973,0.476190476 5.2972973,0 4.75675676,0 L3.24324324,0 C2.7027027,0 2.27027027,0.476190476 2.27027027,1.07142857 L2.27027027,1.64285714 L0.216216216,1.64285714 C0.0972972973,1.64285714 0,1.75 0,1.88095238 C0,2.01190476 0.0972972973,2.11904762 0.216216216,2.11904762 L1.18918919,2.11904762 L1.18918919,7.33333333 C1.18918919,8.25 1.87027027,9 2.7027027,9 L5.2972973,9 C6.12972973,9 6.81081081,8.25 6.81081081,7.33333333 L6.81081081,2.11904762 L7.78378378,2.11904762 C7.9027027,2.11904762 8,2.01190476 8,1.88095238 C8,1.75 7.9027027,1.64285714 7.78378378,1.64285714 L5.72972973,1.64285714 L5.72972973,1.07142857 Z M2.7027027,1.07142857 C2.7027027,0.738095238 2.94054054,0.476190476 3.24324324,0.476190476 L4.75675676,0.476190476 C5.05945946,0.476190476 5.2972973,0.738095238 5.2972973,1.07142857 L5.2972973,1.64285714 L2.7027027,1.64285714 L2.7027027,1.07142857 Z M6.37837838,7.33333333 C6.37837838,7.98809524 5.89189189,8.52380952 5.2972973,8.52380952 L2.7027027,8.52380952 C2.10810811,8.52380952 1.62162162,7.98809524 1.62162162,7.33333333 L1.62162162,2.11904762 L6.37837838,2.11904762 L6.37837838,7.33333333 Z" id="Shape"></path>
            </g>
        </g>
    </g>
</svg>
