<?xml version="1.0" encoding="UTF-8"?>
<svg width="12px" height="12px" viewBox="0 0 12 12" version="1.1" xmlns="http://www.w3.org/2000/svg" xmlns:xlink="http://www.w3.org/1999/xlink">
    <!-- Generator: Sketch 48.2 (47327) - http://www.bohemiancoding.com/sketch -->
    <title>noun_1076168_cc</title>
    <desc>Created with Sketch.</desc>
    <defs></defs>
    <g id="UC-C-04" stroke="none" stroke-width="1" fill="none" fill-rule="evenodd" transform="translate(-900.000000, -496.000000)">
        <g id="noun_1076168_cc" transform="translate(900.500000, 496.000000)" fill="#A5ADBA" fill-rule="nonzero">
            <path d="M7.87837838,1.42857143 C7.87837838,0.634920635 7.28378378,0 6.54054054,0 L4.45945946,0 C3.71621622,0 3.12162162,0.634920635 3.12162162,1.42857143 L3.12162162,2.19047619 L0.297297297,2.19047619 C0.133783784,2.19047619 0,2.33333333 0,2.50793651 C0,2.68253968 0.133783784,2.82539683 0.297297297,2.82539683 L1.63513514,2.82539683 L1.63513514,9.77777778 C1.63513514,11 2.57162162,12 3.71621622,12 L7.28378378,12 C8.42837838,12 9.36486486,11 9.36486486,9.77777778 L9.36486486,2.82539683 L10.7027027,2.82539683 C10.8662162,2.82539683 11,2.68253968 11,2.50793651 C11,2.33333333 10.8662162,2.19047619 10.7027027,2.19047619 L7.87837838,2.19047619 L7.87837838,1.42857143 Z M3.71621622,1.42857143 C3.71621622,0.984126984 4.04324324,0.634920635 4.45945946,0.634920635 L6.54054054,0.634920635 C6.95675676,0.634920635 7.28378378,0.984126984 7.28378378,1.42857143 L7.28378378,2.19047619 L3.71621622,2.19047619 L3.71621622,1.42857143 Z M8.77027027,9.77777778 C8.77027027,10.6507937 8.10135135,11.3650794 7.28378378,11.3650794 L3.71621622,11.3650794 C2.89864865,11.3650794 2.22972973,10.6507937 2.22972973,9.77777778 L2.22972973,2.82539683 L8.77027027,2.82539683 L8.77027027,9.77777778 Z" id="Shape"></path>
        </g>
    </g>
</svg>