<?xml version="1.0" encoding="UTF-8"?>
<svg width="9px" height="12px" viewBox="0 0 9 12" version="1.1" xmlns="http://www.w3.org/2000/svg" xmlns:xlink="http://www.w3.org/1999/xlink">
    <!-- Generator: Sketch 48.2 (47327) - http://www.bohemiancoding.com/sketch -->
    <title>noun_220763_cc</title>
    <desc>Created with Sketch.</desc>
    <defs></defs>
    <g id="S-A-05" stroke="none" stroke-width="1" fill="none" fill-rule="evenodd" transform="translate(-1258.000000, -420.000000)">
        <g id="noun_220763_cc" transform="translate(1258.000000, 420.000000)" fill="#ECEDF0" fill-rule="nonzero">
            <g id="Group">
                <path d="M3.96363636,9.12 C4.07272727,9.22285714 4.21818182,9.25714286 4.36363636,9.25714286 L4.38181818,9.25714286 C4.52727273,9.27428571 4.67272727,9.22285714 4.78181818,9.12 L8.29090909,5.79428571 C8.49090909,5.60571429 8.49090909,5.29714286 8.29090909,5.10857143 C8.09090909,4.92 7.76363636,4.92 7.56363636,5.10857143 L4.96363636,7.56 L4.96363636,0.668571429 C4.96363636,0.36 4.69090909,0.102857143 4.36363636,0.102857143 C4.03636364,0.102857143 3.76363636,0.36 3.76363636,0.668571429 L3.76363636,7.56 L1.18181818,5.10857143 C0.981818182,4.92 0.654545455,4.92 0.436363636,5.10857143 C0.236363636,5.29714286 0.236363636,5.60571429 0.436363636,5.79428571 L3.96363636,9.12 Z" id="Shape"></path>
                <path d="M8.12727273,10.7657143 L0.6,10.7657143 C0.290909091,10.7657143 0.0181818182,11.0057143 0.0181818182,11.3142857 C0.0181818182,11.6228571 0.272727273,11.8628571 0.6,11.8628571 L8.10909091,11.8628571 C8.41818182,11.8628571 8.69090909,11.6228571 8.69090909,11.3142857 C8.69090909,11.0057143 8.43636364,10.7657143 8.12727273,10.7657143 Z" id="Shape"></path>
            </g>
        </g>
    </g>
</svg>