<?xml version="1.0" encoding="UTF-8"?>
<svg width="12px" height="12px" viewBox="0 0 12 12" version="1.1" xmlns="http://www.w3.org/2000/svg" xmlns:xlink="http://www.w3.org/1999/xlink">
    <!-- Generator: Sketch 48.2 (47327) - http://www.bohemiancoding.com/sketch -->
    <title>export_button</title>
    <desc>Created with Sketch.</desc>
    <defs></defs>
    <g id="S-A-02" stroke="none" stroke-width="1" fill="none" fill-rule="evenodd" transform="translate(-989.000000, -518.000000)">
        <g id="Group-9" transform="translate(942.000000, 511.000000)" fill="#5E6C84">
            <g id="export_button" transform="translate(47.000000, 7.000000)">
                <g id="noun_223402_cc">
                    <path d="M11.4,5.49056604 C11.0686154,5.49056604 10.8,5.75411321 10.8,6.07924528 L10.8,10.7886792 L1.2,10.7886792 L1.2,6.07924528 C1.2,5.75411321 0.931384615,5.49056604 0.6,5.49056604 C0.268615385,5.49056604 0,5.75411321 0,6.07924528 L0,11.3773585 C0,11.7024906 0.268615385,11.9660377 0.6,11.9660377 L11.4,11.9660377 C11.7313846,11.9660377 12,11.7024906 12,11.3773585 L12,6.07924528 C12,5.75411321 11.7313846,5.49056604 11.4,5.49056604 Z" id="Shape" fill-rule="nonzero"></path>
                    <path d="M6,0.19245283 C5.66861538,0.19245283 5.4,0.456 5.4,0.781132075 L5.4,7.30709434 L3.72415385,5.66309434 C3.49015385,5.4330566 3.10984615,5.4330566 2.87561538,5.66309434 C2.64115385,5.89290566 2.64115385,6.26581132 2.87561538,6.49562264 L5.57538462,9.14422642 C5.60330769,9.17162264 5.63423077,9.19630189 5.66723077,9.21803774 C5.682,9.22777358 5.69815385,9.23456604 5.71361538,9.24271698 C5.73230769,9.25290566 5.75053846,9.264 5.77038462,9.27215094 C5.79023077,9.28007547 5.81076923,9.28483019 5.83107692,9.29071698 C5.84815385,9.29569811 5.86453846,9.30226415 5.88230769,9.30566038 C5.92107692,9.31313208 5.96030769,9.31720755 5.99976923,9.31720755 C6.03923077,9.31720755 6.07846154,9.31313208 6.11723077,9.30566038 C6.135,9.30226415 6.15138462,9.29569811 6.16846154,9.29071698 C6.18876923,9.28483019 6.20953846,9.28030189 6.22915385,9.27215094 C6.249,9.264 6.26723077,9.25290566 6.28592308,9.24271698 C6.30138462,9.23433962 6.31753846,9.22777358 6.33230769,9.21803774 C6.36530769,9.19630189 6.39623077,9.17184906 6.42415385,9.14422642 L9.12369231,6.49562264 C9.35815385,6.26581132 9.35815385,5.89290566 9.12369231,5.66309434 C8.88969231,5.4330566 8.50938462,5.4330566 8.27515385,5.66309434 L6.6,7.30709434 L6.6,0.781132075 C6.6,0.456 6.33138462,0.19245283 6,0.19245283 Z" id="Shape" fill-rule="nonzero"></path>
                </g>
            </g>
        </g>
    </g>
</svg>