<?xml version="1.0" encoding="UTF-8"?>
<svg width="13px" height="16px" viewBox="0 0 13 16" version="1.1" xmlns="http://www.w3.org/2000/svg" xmlns:xlink="http://www.w3.org/1999/xlink">
    <!-- Generator: Sketch 48.2 (47327) - http://www.bohemiancoding.com/sketch -->
    <title>noun_1014522_cc</title>
    <desc>Created with Sketch.</desc>
    <defs></defs>
    <g id="S-A-02" stroke="none" stroke-width="1" fill="none" fill-rule="evenodd" transform="translate(-1744.000000, -466.000000)">
        <g id="noun_1014522_cc" transform="translate(1744.000000, 466.000000)" fill="#5E6C84" fill-rule="nonzero">
            <path d="M0.0926056593,0.379273838 C-0.0431031467,0.617758207 -0.0237161744,0.89598997 0.111992632,1.13447434 C0.111992632,1.13447434 0.131379604,1.15434804 0.131379604,1.15434804 L4.8230269,7.89153146 L4.8230269,15.5031576 C4.8230269,15.7018945 4.93934873,15.8807578 5.09444451,15.9602526 C5.15260543,16 5.23015332,16 5.3077012,16 C5.42402304,16 5.5209579,15.9602526 5.61789276,15.8807578 L8.00249035,13.833767 C8.11881219,13.7343985 8.1769731,13.5952826 8.1769731,13.4561667 L8.1769731,7.89153146 L12.8686204,1.15434804 C12.8686204,1.15434804 12.8880074,1.13447434 12.8880074,1.13447434 C13.0237162,0.89598997 13.0431031,0.617758207 12.9073943,0.379273838 C12.7716855,0.140789469 12.5390419,0.00167358698 12.2676243,0.00167358698 L0.712988773,0.00167358698 C0.460958133,-0.0182001104 0.208927493,0.140789469 0.0926056593,0.379273838 Z M11.7829499,0.97548476 L7.28517238,7.45431011 C7.22701146,7.5338049 7.18823752,7.63317339 7.18823752,7.75241558 L7.18823752,13.2375561 L5.77298854,14.4498516 L5.77298854,7.73254188 C5.77298854,7.63317339 5.73421459,7.5338049 5.67605368,7.43443642 L1.19766308,0.97548476 L11.7829499,0.97548476 Z" id="Shape"></path>
        </g>
    </g>
</svg>