<?xml version="1.0" encoding="UTF-8"?>
<svg width="13px" height="10px" viewBox="0 0 13 10" version="1.1" xmlns="http://www.w3.org/2000/svg" xmlns:xlink="http://www.w3.org/1999/xlink">
    <!-- Generator: Sketch 48.2 (47327) - http://www.bohemiancoding.com/sketch -->
    <title>folder_icon</title>
    <desc>Created with Sketch.</desc>
    <defs></defs>
    <g id="S-A-02" stroke="none" stroke-width="1" fill="none" fill-rule="evenodd" transform="translate(-354.000000, -400.000000)">
        <g id="folder_icon" transform="translate(354.000000, 400.000000)" fill="#5E6C84">
            <g id="noun_977578_cc">
                <path d="M11.6617647,1.53846154 L6.63382353,1.53846154 C6.57647059,1.53846154 6.53823529,1.51923077 6.5,1.48076923 L5.41029412,0.384615385 C5.16176471,0.134615385 4.81764706,0 4.45441176,0 L1.33823529,0 C0.592647059,0 0,0.596153846 0,1.34615385 L0,8.65384615 C0,9.40384615 0.592647059,10 1.33823529,10 L11.6617647,10 C12.4073529,10 13,9.40384615 13,8.65384615 L13,2.88461538 C13,2.13461538 12.4073529,1.53846154 11.6617647,1.53846154 Z M11.6617647,9.23076923 L1.33823529,9.23076923 C1.01323529,9.23076923 0.764705882,8.98076923 0.764705882,8.65384615 L0.764705882,1.34615385 C0.764705882,1.01923077 1.01323529,0.769230769 1.33823529,0.769230769 L4.45441176,0.769230769 C4.60735294,0.769230769 4.76029412,0.826923077 4.85588235,0.942307692 L5.94558824,2.03846154 C6.11764706,2.21153846 6.36617647,2.32692308 6.61470588,2.32692308 L11.6617647,2.32692308 C11.9867647,2.32692308 12.2352941,2.57692308 12.2352941,2.90384615 L12.2352941,8.67307692 C12.2352941,8.98076923 11.9867647,9.23076923 11.6617647,9.23076923 Z" id="Shape" fill-rule="nonzero"></path>
            </g>
        </g>
    </g>
</svg>