<?xml version="1.0" encoding="UTF-8"?>
<svg width="34px" height="34px" viewBox="0 0 34 34" version="1.1" xmlns="http://www.w3.org/2000/svg" xmlns:xlink="http://www.w3.org/1999/xlink">
    <!-- Generator: Sketch 48.2 (47327) - http://www.bohemiancoding.com/sketch -->
    <title>gift_button</title>
    <desc>Created with Sketch.</desc>
    <defs></defs>
    <g id="U-A-02" stroke="none" stroke-width="1" fill="none" fill-rule="evenodd" transform="translate(-1854.000000, -110.000000)">
        <g id="gift_button" transform="translate(1855.000000, 111.000000)">
            <g id="Background" stroke="#4C9AFF">
                <rect id="bg" x="0" y="0" width="32" height="32" rx="3"></rect>
            </g>
            <g id="gift_icon" transform="translate(6.400000, 5.333333)" fill="#4C9AFF">
                <g id="noun_73228_cc">
                    <path d="M0.395041667,8.70833333 L7.915875,8.70833333 L7.915875,5.54166667 L8.70754167,5.54166667 L8.70754167,8.70833333 L10.290875,8.70833333 L10.290875,5.54166667 L11.0825417,5.54166667 L11.0825417,8.70833333 L18.603375,8.70833333 C18.821875,8.70833333 18.9992083,8.531 18.9992083,8.3125 L18.9992083,5.14583333 C18.9992083,4.92733333 18.821875,4.75 18.603375,4.75 L12.9762083,4.75 C13.8185417,4.01533333 14.6125833,2.89908333 14.6125833,1.9665 C14.6125833,0.716458333 13.8312083,0 12.46875,0 C11.8710417,0 10.2530729,0.216125 9.5,2.39083333 C8.747125,0.216916667 7.12895833,0 6.53125,0 C5.16879167,0 4.38741667,0.716458333 4.38741667,1.9665 C4.38741667,2.89908333 5.18066667,4.01533333 6.02458333,4.75 L0.396625,4.75 C0.178125,4.75 0.000791666667,4.92733333 0.000791666667,5.14583333 L0.000791666667,8.3125 C-0.000791666667,8.531 0.176541667,8.70833333 0.395041667,8.70833333 Z M12.4679583,0.791666667 C13.6675312,0.791666667 13.820125,1.41945833 13.820125,1.9665 C13.820125,3.09304167 12.0380833,4.75 11.478375,4.75 L9.90711458,4.75 C10.0264583,1.197 11.7224062,0.791666667 12.4679583,0.791666667 Z M5.17829167,1.9665 C5.17829167,1.41945833 5.331875,0.791666667 6.53045833,0.791666667 C7.27620833,0.791666667 8.97195833,1.197 9.0915,4.75 L7.52004167,4.75 C6.95954167,4.75 5.17829167,3.09304167 5.17829167,1.9665 Z" id="Shape" fill-rule="nonzero"></path>
                    <path d="M7.915875,9.5 L0.790875,9.5 L0.790875,18.6041667 C0.790875,18.8226667 0.968208333,19 1.18670833,19 L7.915875,19 L7.915875,9.5 Z" id="Shape" fill-rule="nonzero"></path>
                    <path d="M11.0825417,9.5 L11.0825417,19 L17.8117083,19 C18.0302083,19 18.2075417,18.8226667 18.2075417,18.6041667 L18.2075417,9.5 L11.0825417,9.5 Z" id="Shape" fill-rule="nonzero"></path>
                    <polygon id="Shape" fill-rule="nonzero" points="8.70754167 9.5 10.290875 9.5 10.290875 19 8.70754167 19"></polygon>
                </g>
            </g>
        </g>
    </g>
</svg>