<?xml version="1.0" encoding="UTF-8"?>
<svg width="34px" height="34px" viewBox="0 0 34 34" version="1.1" xmlns="http://www.w3.org/2000/svg" xmlns:xlink="http://www.w3.org/1999/xlink">
    <!-- Generator: Sketch 48.2 (47327) - http://www.bohemiancoding.com/sketch -->
    <title>gift-hover_button</title>
    <desc>Created with Sketch.</desc>
    <defs></defs>
    <g id="U-A-04" stroke="none" stroke-width="1" fill="none" fill-rule="evenodd" transform="translate(-1854.000000, -110.000000)">
        <g id="gift-hover_button" transform="translate(1855.000000, 111.000000)">
            <g id="gift_button">
                <g id="Background" fill="#4C9AFF" stroke="#4C9AFF">
                    <rect id="bg" x="0" y="0" width="32" height="32" rx="3"></rect>
                </g>
                <g id="noun_73228_cc" transform="translate(6.400000, 5.333333)" fill="#FFFFFF" fill-rule="nonzero">
                    <path d="M0.3992,8.8 L7.9992,8.8 L7.9992,5.6 L8.7992,5.6 L8.7992,8.8 L10.3992,8.8 L10.3992,5.6 L11.1992,5.6 L11.1992,8.8 L18.7992,8.8 C19.02,8.8 19.1992,8.6208 19.1992,8.4 L19.1992,5.2 C19.1992,4.9792 19.02,4.8 18.7992,4.8 L13.1128,4.8 C13.964,4.0576 14.7664,2.9296 14.7664,1.9872 C14.7664,0.724 13.9768,0 12.6,0 C11.996,0 10.361,0.2184 9.6,2.416 C8.8392,0.2192 7.204,0 6.6,0 C5.2232,0 4.4336,0.724 4.4336,1.9872 C4.4336,2.9296 5.2352,4.0576 6.088,4.8 L0.4008,4.8 C0.18,4.8 0.0008,4.9792 0.0008,5.2 L0.0008,8.4 C-0.0008,8.6208 0.1784,8.8 0.3992,8.8 Z M12.5992,0.8 C13.8114,0.8 13.9656,1.4344 13.9656,1.9872 C13.9656,3.1256 12.1648,4.8 11.5992,4.8 L10.0114,4.8 C10.132,1.2096 11.8458,0.8 12.5992,0.8 Z M5.2328,1.9872 C5.2328,1.4344 5.388,0.8 6.5992,0.8 C7.3528,0.8 9.0664,1.2096 9.1872,4.8 L7.5992,4.8 C7.0328,4.8 5.2328,3.1256 5.2328,1.9872 Z" id="Shape"></path>
                    <path d="M7.9992,9.6 L0.7992,9.6 L0.7992,18.8 C0.7992,19.0208 0.9784,19.2 1.1992,19.2 L7.9992,19.2 L7.9992,9.6 Z" id="Shape"></path>
                    <path d="M11.1992,9.6 L11.1992,19.2 L17.9992,19.2 C18.22,19.2 18.3992,19.0208 18.3992,18.8 L18.3992,9.6 L11.1992,9.6 Z" id="Shape"></path>
                    <polygon id="Shape" points="8.7992 9.6 10.3992 9.6 10.3992 19.2 8.7992 19.2"></polygon>
                </g>
            </g>
        </g>
    </g>
</svg>