<?xml version="1.0" encoding="UTF-8"?>
<svg width="369px" height="211px" viewBox="0 0 369 211" version="1.1" xmlns="http://www.w3.org/2000/svg" xmlns:xlink="http://www.w3.org/1999/xlink">
    <!-- Generator: Sketch 48.2 (47327) - http://www.bohemiancoding.com/sketch -->
    <title>knowledge-tool-information_image</title>
    <desc>Created with Sketch.</desc>
    <defs>
        <rect id="path-1" x="13" y="10" width="356" height="201" rx="2"></rect>
        <rect id="path-2" x="0" y="0" width="356" height="201" rx="2"></rect>
    </defs>
    <g id="U-A-04" stroke="none" stroke-width="1" fill="none" fill-rule="evenodd" transform="translate(-813.000000, -366.000000)">
        <g id="knowledge-tool-information_image" transform="translate(813.000000, 366.000000)">
            <g id="Group-20">
                <g id="interesting-features_banner">
                    <g id="Group-5">
                        <g id="Rectangle-8">
                            <use fill="#FFFFFF" fill-rule="evenodd" xlink:href="#path-1"></use>
                            <rect stroke="#C1C1C1" stroke-width="4" x="15" y="12" width="352" height="197" rx="2"></rect>
                        </g>
                        <g id="Rectangle-8">
                            <use fill="#FFFFFF" fill-rule="evenodd" xlink:href="#path-2"></use>
                            <rect stroke="#C1C1C1" stroke-width="4" x="2" y="2" width="352" height="197" rx="2"></rect>
                        </g>
                    </g>
                </g>
                <g id="Group-18" transform="translate(274.000000, 70.000000)" fill="#D8D8D8">
                    <rect id="Rectangle-3" x="0" y="0" width="55" height="6"></rect>
                    <rect id="Rectangle-3" x="0" y="20" width="55" height="6"></rect>
                    <rect id="Rectangle-3" x="0" y="40" width="55" height="6"></rect>
                    <rect id="Rectangle-3" x="0" y="60" width="55" height="6"></rect>
                    <rect id="Rectangle-3" x="0" y="80" width="55" height="6"></rect>
                </g>
                <g id="Group-19" transform="translate(24.000000, 70.000000)" fill="#D8D8D8">
                    <rect id="Rectangle-3" x="0" y="0" width="233" height="6"></rect>
                    <rect id="Rectangle-3" x="0" y="10" width="233" height="6"></rect>
                    <rect id="Rectangle-3" x="0" y="20" width="233" height="6"></rect>
                    <rect id="Rectangle-3" x="0" y="30" width="233" height="6"></rect>
                    <rect id="Rectangle-3" x="0" y="40" width="233" height="6"></rect>
                    <rect id="Rectangle-3" x="0" y="50" width="233" height="6"></rect>
                    <rect id="Rectangle-3" x="0" y="60" width="233" height="6"></rect>
                    <rect id="Rectangle-3" x="0" y="70" width="233" height="6"></rect>
                    <rect id="Rectangle-3" x="0" y="80" width="233" height="6"></rect>
                    <rect id="Rectangle-3" x="0" y="90" width="233" height="6"></rect>
                    <rect id="Rectangle-3" x="0" y="100" width="233" height="6"></rect>
                    <rect id="Rectangle-3" x="0" y="110" width="233" height="6"></rect>
                </g>
                <rect id="Rectangle-3" fill="#D8D8D8" x="299" y="13" width="28" height="28"></rect>
                <g id="knowledge-tool_button" transform="translate(261.000000, 13.000000)">
                    <g id="gift_button" stroke="#4C9AFF">
                        <g id="Background">
                            <rect id="bg" x="0" y="0" width="28" height="28" rx="3"></rect>
                        </g>
                    </g>
                    <g id="light-bulb-(1)" transform="translate(3.937500, 3.500000)" fill="#4C9AFF">
                        <path d="M12.452991,18.3512346 L12.452991,18.9648148 C12.452991,19.4530864 12.0948488,19.8592593 11.6288325,19.9283951 L11.4778087,20.4858025 C11.3958244,20.7882716 11.1239816,21 10.8089891,21 L9.31169597,21 C8.99670347,21 8.72486063,20.7882716 8.64287629,20.4858025 L8.49616745,19.9283951 C8.02583619,19.8549383 7.66769404,19.4530864 7.66769404,18.9604938 L7.66769404,18.3469136 C7.66769404,18.0185185 7.93090695,17.7549383 8.25884434,17.7549383 L11.8618407,17.7549383 C12.1897781,17.7592593 12.452991,18.0228395 12.452991,18.3512346 Z M15.2275139,10.0808642 C15.2275139,11.4765432 14.6751983,12.7425926 13.7776855,13.6716049 C13.0959209,14.3802469 12.6557944,15.2833333 12.5090855,16.2469136 C12.4443611,16.6617284 12.0862189,16.9685185 11.6633523,16.9685185 L8.45733276,16.9685185 C8.03878109,16.9685185 7.67632397,16.6660494 7.61591445,16.2512346 C7.46489065,15.2876543 7.02044919,14.3716049 6.33868461,13.667284 C5.4584316,12.7512346 4.91043096,11.5067901 4.89748606,10.137037 C4.8672813,7.25925926 7.15421312,4.93024691 10.0279803,4.90864198 C12.8974325,4.88703704 15.2275139,7.2117284 15.2275139,10.0808642 Z M10.6450204,6.94814815 C10.6450204,6.62839506 10.3861224,6.36481481 10.0625,6.36481481 C8.00857633,6.36481481 6.33436964,8.03703704 6.33436964,10.0981481 C6.33436964,10.4179012 6.59326758,10.6814815 6.91689001,10.6814815 C7.23619747,10.6814815 7.49941038,10.4222222 7.49941038,10.0981481 C7.49941038,8.6808642 8.65150622,7.53148148 10.0625,7.53148148 C10.3861224,7.53148148 10.6450204,7.27222222 10.6450204,6.94814815 Z M10.0625,3.21049383 C10.3818075,3.21049383 10.6450204,2.95123457 10.6450204,2.62716049 L10.6450204,0.583333333 C10.6450204,0.263580247 10.3861224,0 10.0625,0 C9.73887757,0 9.47997963,0.259259259 9.47997963,0.583333333 L9.47997963,2.62716049 C9.47997963,2.95123457 9.74319254,3.21049383 10.0625,3.21049383 Z M3.20601951,10.0765432 C3.20601951,9.75679012 2.94712157,9.49320988 2.62349914,9.49320988 L0.582520369,9.49320988 C0.263212907,9.49320988 0,9.75246914 0,10.0765432 C0,10.3962963 0.258897942,10.6598765 0.582520369,10.6598765 L2.62349914,10.6598765 C2.94712157,10.6598765 3.20601951,10.4006173 3.20601951,10.0765432 Z M19.5424796,9.49320988 L17.5015009,9.49320988 C17.1821934,9.49320988 16.9189805,9.75246914 16.9189805,10.0765432 C16.9189805,10.3962963 17.1778784,10.6598765 17.5015009,10.6598765 L19.5424796,10.6598765 C19.8617871,10.6598765 20.125,10.4006173 20.125,10.0765432 C20.125,9.75679012 19.8661021,9.49320988 19.5424796,9.49320988 Z M15.3224432,5.39259259 C15.469152,5.39259259 15.6201758,5.33641975 15.7323649,5.22407407 L17.1778784,3.77654321 C17.4065716,3.54753086 17.4065716,3.18024691 17.1778784,2.95123457 C16.9491852,2.72222222 16.5824132,2.72222222 16.35372,2.95123457 L14.9082065,4.39876543 C14.6795133,4.62777778 14.6795133,4.99506173 14.9082065,5.22407407 C15.0247105,5.33641975 15.1714194,5.39259259 15.3224432,5.39259259 Z M4.39263508,5.21975309 C4.50482419,5.33209877 4.65584798,5.3882716 4.80255682,5.3882716 C4.94926565,5.3882716 5.10028945,5.33209877 5.21247856,5.21975309 C5.44117174,4.99074074 5.44117174,4.62345679 5.21247856,4.39444444 L3.76696505,2.94691358 C3.53827187,2.71790123 3.17149979,2.71790123 2.9428066,2.94691358 C2.71411342,3.17592593 2.71411342,3.54320988 2.9428066,3.77222222 L4.39263508,5.21975309 Z" id="XMLID_49_" fill-rule="nonzero"></path>
                    </g>
                </g>
            </g>
        </g>
    </g>
</svg>