<?xml version="1.0" encoding="UTF-8"?>
<svg width="34px" height="34px" viewBox="0 0 34 34" version="1.1" xmlns="http://www.w3.org/2000/svg" xmlns:xlink="http://www.w3.org/1999/xlink">
    <!-- Generator: Sketch 48.2 (47327) - http://www.bohemiancoding.com/sketch -->
    <title>knowledge-tool_button</title>
    <desc>Created with Sketch.</desc>
    <defs></defs>
    <g id="T-A-02" stroke="none" stroke-width="1" fill="none" fill-rule="evenodd" transform="translate(-1754.000000, -110.000000)">
        <g id="knowledge-tool_button" transform="translate(1755.000000, 111.000000)">
            <g id="gift_button" stroke="#4C9AFF">
                <g id="Background">
                    <rect id="bg" x="0" y="0" width="32" height="32" rx="3"></rect>
                </g>
            </g>
            <g id="light-bulb-(1)" transform="translate(4.500000, 4.000000)" fill="#4C9AFF">
                <path d="M14.2319897,20.9728395 L14.2319897,21.6740741 C14.2319897,22.2320988 13.8226844,22.6962963 13.2900943,22.7753086 L13.1174957,23.4123457 C13.0237993,23.7580247 12.7131218,24 12.3531304,24 L10.6419383,24 C10.2819468,24 9.9712693,23.7580247 9.8775729,23.4123457 L9.70990566,22.7753086 C9.17238422,22.691358 8.7630789,22.2320988 8.7630789,21.6691358 L8.7630789,20.9679012 C8.7630789,20.5925926 9.06389365,20.291358 9.43867925,20.291358 L13.5563894,20.291358 C13.931175,20.2962963 14.2319897,20.5975309 14.2319897,20.9728395 Z M17.4028731,11.5209877 C17.4028731,13.1160494 16.7716552,14.562963 15.7459262,15.6246914 C14.9667667,16.4345679 14.463765,17.4666667 14.2960978,18.5679012 C14.2221269,19.0419753 13.8128216,19.3925926 13.3295455,19.3925926 L9.66552316,19.3925926 C9.18717839,19.3925926 8.77294168,19.0469136 8.70390223,18.5728395 C8.5313036,17.4716049 8.0233705,16.4246914 7.24421098,15.6197531 C6.23820755,14.5728395 5.6119211,13.1506173 5.59712693,11.5851852 C5.5626072,8.2962963 8.17624357,5.6345679 11.4605489,5.60987654 C14.7399228,5.58518519 17.4028731,8.24197531 17.4028731,11.5209877 Z M12.1657376,7.94074074 C12.1657376,7.57530864 11.8698542,7.27407407 11.5,7.27407407 C9.15265866,7.27407407 7.23927959,9.18518519 7.23927959,11.5407407 C7.23927959,11.9061728 7.53516295,12.2074074 7.90501715,12.2074074 C8.26993997,12.2074074 8.57075472,11.9111111 8.57075472,11.5407407 C8.57075472,9.92098765 9.88743568,8.60740741 11.5,8.60740741 C11.8698542,8.60740741 12.1657376,8.31111111 12.1657376,7.94074074 Z M11.5,3.6691358 C11.8649228,3.6691358 12.1657376,3.37283951 12.1657376,3.00246914 L12.1657376,0.666666667 C12.1657376,0.301234568 11.8698542,0 11.5,0 C11.1301458,0 10.8342624,0.296296296 10.8342624,0.666666667 L10.8342624,3.00246914 C10.8342624,3.37283951 11.1350772,3.6691358 11.5,3.6691358 Z M3.6640223,11.5160494 C3.6640223,11.1506173 3.36813894,10.8493827 2.99828473,10.8493827 L0.665737564,10.8493827 C0.300814751,10.8493827 0,11.145679 0,11.5160494 C0,11.8814815 0.295883362,12.182716 0.665737564,12.182716 L2.99828473,12.182716 C3.36813894,12.182716 3.6640223,11.8864198 3.6640223,11.5160494 Z M22.3342624,10.8493827 L20.0017153,10.8493827 C19.6367925,10.8493827 19.3359777,11.145679 19.3359777,11.5160494 C19.3359777,11.8814815 19.6318611,12.182716 20.0017153,12.182716 L22.3342624,12.182716 C22.6991852,12.182716 23,11.8864198 23,11.5160494 C23,11.1506173 22.7041166,10.8493827 22.3342624,10.8493827 Z M17.5113636,6.16296296 C17.6790309,6.16296296 17.8516295,6.09876543 17.9798456,5.97037037 L19.6318611,4.31604938 C19.8932247,4.05432099 19.8932247,3.6345679 19.6318611,3.37283951 C19.3704974,3.11111111 18.9513293,3.11111111 18.6899657,3.37283951 L17.0379503,5.02716049 C16.7765866,5.28888889 16.7765866,5.70864198 17.0379503,5.97037037 C17.1710978,6.09876543 17.338765,6.16296296 17.5113636,6.16296296 Z M5.02015437,5.9654321 C5.1483705,6.09382716 5.32096913,6.15802469 5.48863636,6.15802469 C5.6563036,6.15802469 5.82890223,6.09382716 5.95711835,5.9654321 C6.21848199,5.7037037 6.21848199,5.28395062 5.95711835,5.02222222 L4.30510292,3.36790123 C4.04373928,3.10617284 3.62457118,3.10617284 3.36320755,3.36790123 C3.10184391,3.62962963 3.10184391,4.04938272 3.36320755,4.31111111 L5.02015437,5.9654321 Z" id="XMLID_49_" fill-rule="nonzero"></path>
            </g>
        </g>
    </g>
</svg>