<?xml version="1.0" encoding="UTF-8"?>
<svg width="10px" height="10px" viewBox="0 0 10 10" version="1.1" xmlns="http://www.w3.org/2000/svg" xmlns:xlink="http://www.w3.org/1999/xlink">
    <!-- Generator: Sketch 48.2 (47327) - http://www.bohemiancoding.com/sketch -->
    <title>mark-up_button</title>
    <desc>Created with Sketch.</desc>
    <defs></defs>
    <g id="S-A-02" stroke="none" stroke-width="1" fill="none" fill-rule="evenodd" transform="translate(-1033.000000, -656.000000)">
        <g id="mark-up_button" transform="translate(1034.000000, 657.000000)" fill="#172B4D" stroke="#172B4D">
            <g id="noun_70796_cc">
                <path d="M0.75,2.31578947 L3.71052632,2.31578947 C3.79768421,2.31578947 3.86842105,2.24505263 3.86842105,2.15789474 C3.86842105,2.07073684 3.79768421,2 3.71052632,2 L0.75,2 C0.428052632,2 0,2.06955263 0,2.67105263 L0,7.32894737 C0,7.93044737 0.428052632,8 0.75,8 L5.25,8 C5.57194737,8 6,7.93044737 6,7.32894737 L6,3.97368421 C6,3.88652632 5.92926316,3.81578947 5.84210526,3.81578947 C5.75494737,3.81578947 5.68421053,3.88652632 5.68421053,3.97368421 L5.68421053,7.32894737 C5.68421053,7.57463158 5.62152632,7.68421053 5.25,7.68421053 L0.75,7.68421053 C0.378473684,7.68421053 0.315789474,7.57463158 0.315789474,7.32894737 L0.315789474,2.67105263 C0.315789474,2.42536842 0.378473684,2.31578947 0.75,2.31578947 Z" id="Shape" stroke-width="0.1" fill-rule="nonzero"></path>
                <path d="M6.97306281,0 C6.93486787,0 6.91441235,0.00410270437 6.91441235,0.00410270437 C6.8815647,0.010769599 6.84591609,0.0279496735 6.82223522,0.0518821156 L5.64931094,1.23303361 L3.2129828,3.66405689 C3.18726487,3.68969879 3.17037422,3.72294779 3.16477229,3.75893193 L3.00206183,4.80255735 C2.99374382,4.85580704 3.01088911,4.90982598 3.0481504,4.9483743 C3.08031903,4.9816233 3.12420078,5 3.1696952,5 C3.17699468,5 3.18437903,4.99948716 3.19167851,4.99854696 L4.18024853,4.86862799 C4.19238603,4.87136312 4.20486305,4.87273069 4.21725519,4.87273069 C4.25400721,4.87273069 4.29109874,4.86076447 4.32224884,4.83606277 C4.3296332,4.83016513 4.33599902,4.82341277 4.34211021,4.81648945 C4.34474142,4.81418168 4.34805165,4.81289959 4.3505131,4.81050634 L7.94864655,1.18593798 C7.97360058,1.16072344 7.99015172,1.12832917 7.99600828,1.09319977 C8.00186484,1.057643 8.0422666,0.734555028 7.65632791,0.345994735 C7.34610009,0.033761838 7.07517063,0 6.97306281,0 Z M3.49511612,4.50143595 C3.4640509,4.47006735 3.43298568,4.44690417 3.40387264,4.42955315 L3.4720294,3.99244419 C3.55351194,4.02047933 3.67268017,4.08304557 3.8225741,4.23399091 C3.94547694,4.35775582 4.00234497,4.46528086 4.02848729,4.54391603 L3.57973914,4.60280693 C3.55724656,4.57084003 3.52983108,4.53639441 3.49511612,4.50143595 Z M4.31978739,4.35809771 C4.27200127,4.24877774 4.19298018,4.12355978 4.0626081,3.99227324 C3.90719712,3.83577216 3.76969532,3.74884611 3.65994852,3.69935724 L5.88883568,1.47526411 L7.01134263,0.344969059 C7.08467692,0.355738658 7.23160014,0.401979555 7.41620904,0.587883346 C7.60353401,0.776436801 7.64792503,0.925758146 7.65819522,0.995162228 L4.31978739,4.35809771 Z" id="Shape" stroke-width="0.1" fill-rule="nonzero"></path>
            </g>
        </g>
    </g>
</svg>