<?xml version="1.0" encoding="UTF-8"?>
<svg width="7px" height="7px" viewBox="0 0 7 7" version="1.1" xmlns="http://www.w3.org/2000/svg" xmlns:xlink="http://www.w3.org/1999/xlink">
    <!-- Generator: Sketch 48.2 (47327) - http://www.bohemiancoding.com/sketch -->
    <title>Group 6</title>
    <desc>Created with Sketch.</desc>
    <defs></defs>
    <g id="S-A-01" stroke="none" stroke-width="1" fill="none" fill-rule="evenodd" transform="translate(-814.000000, -930.000000)">
        <g id="Group-6" transform="translate(814.000000, 930.000000)" fill="#42526E">
            <path d="M0,0.5 C0,0.776142375 0.232902527,1 0.503422737,1 L6.49657726,1 C6.77460996,1 7,0.768066406 7,0.5 L7,0.5 C7,0.223857625 6.76709747,0 6.49657726,0 L0.503422737,0 C0.225390037,0 0,0.231933594 0,0.5 L0,0.5 Z" id="Path"></path>
            <path d="M6.49657726,4 C6.77460996,4 7,3.76806641 7,3.5 L7,3.5 C7,3.22385763 6.76709747,3 6.49657726,3 L0.503422737,3 C0.225390037,3 0,3.23193359 0,3.5 L0,3.5 C0,3.77614237 0.232902527,4 0.503422737,4 L6.49657726,4 Z" id="Path"></path>
            <path d="M6.49657726,7 C6.77460996,7 7,6.76806641 7,6.5 L7,6.5 C7,6.22385763 6.76709747,6 6.49657726,6 L0.503422737,6 C0.225390037,6 0,6.23193359 0,6.5 L0,6.5 C0,6.77614237 0.232902527,7 0.503422737,7 L6.49657726,7 Z" id="Path"></path>
        </g>
    </g>
</svg>