<?xml version="1.0" encoding="UTF-8"?>
<svg width="12px" height="12px" viewBox="0 0 12 12" version="1.1" xmlns="http://www.w3.org/2000/svg" xmlns:xlink="http://www.w3.org/1999/xlink">
    <!-- Generator: Sketch 48.2 (47327) - http://www.bohemiancoding.com/sketch -->
    <title>new-window_button</title>
    <desc>Created with Sketch.</desc>
    <defs></defs>
    <g id="S-A-04" stroke="none" stroke-width="1" fill="none" fill-rule="evenodd" transform="translate(-826.000000, -536.000000)">
        <g id="new-window_button" transform="translate(826.000000, 536.000000)" fill="#4C9AFF" fill-rule="nonzero">
            <path d="M2.22439024,12 L8.89756098,12 C10.1209756,12 11.1219512,11.0228571 11.1219512,9.82857143 L11.1219512,5.84761905 C11.1219512,5.64857143 10.955122,5.48571429 10.7512195,5.48571429 C10.5473171,5.48571429 10.3804878,5.64857143 10.3804878,5.84761905 L10.3804878,9.82857143 C10.3804878,10.6247619 9.71317073,11.2761905 8.89756098,11.2761905 L2.22439024,11.2761905 C1.40878049,11.2761905 0.741463415,10.6247619 0.741463415,9.82857143 L0.741463415,3.31428571 C0.741463415,2.51809524 1.40878049,1.86666667 2.22439024,1.86666667 L6.30243902,1.86666667 C6.50634146,1.86666667 6.67317073,1.70380952 6.67317073,1.5047619 C6.67317073,1.30571429 6.50634146,1.14285714 6.30243902,1.14285714 L2.22439024,1.14285714 C1.00097561,1.14285714 0,2.12 0,3.31428571 L0,9.82857143 C6.58551804e-16,11.0228571 1.00097561,12 2.22439024,12 Z" id="Shape"></path>
            <path d="M12,3.63679061 L12,0.342074364 C12,0.32407045 12,0.288062622 12,0.270058708 C12,0.270058708 12,0.252054795 12,0.252054795 C12,0.234050881 12,0.216046967 11.9816575,0.198043053 L11.9633149,0.180039139 C11.9633149,0.162035225 11.9449724,0.144031311 11.9449724,0.144031311 C11.9266299,0.108023483 11.8899448,0.0720156556 11.8349173,0.0360078278 C11.8165747,0.0180039139 11.7982322,0.0180039139 11.7798897,0.0180039139 L11.7248621,0 L11.7065196,0 C11.688177,0 11.651492,0 11.6331495,0 L8.27646707,0 C8.07469928,0 7.90961653,0.162035225 7.90961653,0.360078278 C7.90961653,0.558121331 8.07469928,0.720156556 8.27646707,0.720156556 L10.7527082,0.720156556 L5.37834784,5.9592955 C5.23160763,6.10332681 5.23160763,6.31937378 5.37834784,6.46340509 C5.52508806,6.6074364 5.74519838,6.6074364 5.89193859,6.46340509 L11.2662989,1.20626223 L11.2662989,3.63679061 C11.2662989,3.83483366 11.4313817,3.99686888 11.6331495,3.99686888 C11.8349173,3.99686888 12,3.83483366 12,3.63679061 Z" id="Shape"></path>
        </g>
    </g>
</svg>