<?xml version="1.0" encoding="UTF-8"?>
<svg width="10px" height="10px" viewBox="0 0 10 10" version="1.1" xmlns="http://www.w3.org/2000/svg" xmlns:xlink="http://www.w3.org/1999/xlink">
    <!-- Generator: Sketch 48.2 (47327) - http://www.bohemiancoding.com/sketch -->
    <title>new_tab</title>
    <desc>Created with Sketch.</desc>
    <defs></defs>
    <g id="U-A-02" stroke="none" stroke-width="1" fill="none" fill-rule="evenodd" transform="translate(-890.000000, -788.000000)">
        <g id="new_tab" transform="translate(890.000000, 788.000000)" fill="#0052CC">
            <g id="noun_1395731_cc" transform="translate(0.000000, 0.151515)">
                <path d="M8.15384615,9.84848485 L0.923076923,9.84848485 C0.413275616,9.84848485 0,9.44147098 0,8.93939394 L0,1.81818182 C-1.36642834e-16,1.31610477 0.413275616,0.909090909 0.923076923,0.909090909 L4.15384615,0.909090909 C4.32377992,0.909090909 4.46153846,1.0447622 4.46153846,1.21212121 C4.46153846,1.37948023 4.32377992,1.51515152 4.15384615,1.51515152 L0.923076923,1.51515152 C0.753143154,1.51515152 0.615384615,1.6508228 0.615384615,1.81818182 L0.615384615,8.93939394 C0.615384615,9.10675295 0.753143154,9.24242424 0.923076923,9.24242424 L8.15384615,9.24242424 C8.32377992,9.24242424 8.46153846,9.10675295 8.46153846,8.93939394 L8.46153846,5.75757576 C8.46153846,5.59021674 8.599297,5.45454545 8.76923077,5.45454545 C8.93916454,5.45454545 9.07692308,5.59021674 9.07692308,5.75757576 L9.07692308,8.93939394 C9.07692308,9.44147098 8.66364746,9.84848485 8.15384615,9.84848485 Z" id="Shape" fill-rule="nonzero"></path>
                <path d="M7.10769231,0.616666667 C6.93775854,0.616666667 6.8,0.480995379 6.8,0.313636364 C6.8,0.146277349 6.93775854,0.0106060606 7.10769231,0.0106060606 L9.69230769,0 C9.86224146,0 10,0.135671288 10,0.303030303 C10,0.470389318 9.86224146,0.606060606 9.69230769,0.606060606 L7.10615385,0.616666667 L7.10769231,0.616666667 Z" id="Shape" fill-rule="nonzero"></path>
                <path d="M9.69230769,3.48484848 C9.52237392,3.48484848 9.38461538,3.3491772 9.38461538,3.18181818 L9.37076923,0.490909091 C9.37076923,0.323550076 9.50852777,0.187878788 9.67846154,0.187878788 C9.84839531,0.187878788 9.98615385,0.323550076 9.98615385,0.490909091 L10,3.18181818 C10,3.3491772 9.86224146,3.48484848 9.69230769,3.48484848 Z" id="Shape" fill-rule="nonzero"></path>
                <path d="M6.41076923,3.88787879 C6.32951615,3.88794265 6.25153584,3.85635165 6.19384615,3.8 C6.1360686,3.74316113 6.10360411,3.66603311 6.10360411,3.58560606 C6.10360411,3.50517902 6.1360686,3.42805099 6.19384615,3.37121212 L9.21538462,0.395454545 C9.33675603,0.286755411 9.52337444,0.290952161 9.63958144,0.404994054 C9.75578845,0.519035946 9.76071034,0.702810798 9.65076923,0.822727273 L6.62769231,3.8 C6.57000263,3.85635165 6.49202231,3.88794265 6.41076923,3.88787879 Z" id="Shape" fill-rule="nonzero"></path>
            </g>
        </g>
    </g>
</svg>