<?xml version="1.0" encoding="UTF-8"?>
<svg width="11px" height="11px" viewBox="0 0 11 11" version="1.1" xmlns="http://www.w3.org/2000/svg" xmlns:xlink="http://www.w3.org/1999/xlink">
    <!-- Generator: Sketch 48.2 (47327) - http://www.bohemiancoding.com/sketch -->
    <title>pin_button</title>
    <desc>Created with Sketch.</desc>
    <defs></defs>
    <g id="UC-C-04" stroke="none" stroke-width="1" fill="none" fill-rule="evenodd" transform="translate(-901.000000, -467.000000)">
        <g id="pin_button" transform="translate(901.000000, 467.000000)" fill="#42526E" fill-rule="nonzero">
            <g id="noun_408356_cc">
                <path d="M7.28274783,8.71469102 C7.84840015,7.79042435 7.87218927,6.83446854 7.3554368,5.88115347 C7.25367225,5.69365937 7.2351696,5.56822318 7.37922592,5.39393289 C7.73474103,4.96612946 8.06250219,4.51587955 8.40876598,4.08147421 C8.67308951,3.75798087 8.88322669,3.73817516 9.20173653,3.99036792 C9.76738884,4.43137516 10.3687248,4.37327841 10.8709395,3.84776678 C11.0467146,3.66291345 11.0414282,3.51899191 10.8643314,3.34866277 C10.5867917,3.06742163 10.3118953,2.7848601 10.0383204,2.50890048 L9.37751166,1.84870999 L9.26649579,1.73779799 L9.15547991,1.62688598 L8.49467113,0.966695505 C8.21845307,0.693376645 7.93562691,0.418737402 7.65940884,0.132214733 C7.4915634,-0.040755174 7.34618547,-0.0473570789 7.16248063,0.132214733 C6.63383361,0.6339595 6.57832568,1.23605322 7.01974593,1.79985589 C7.27217489,2.12202886 7.25235063,2.33857134 6.92855433,2.59208447 C6.49374215,2.93934467 6.04307056,3.26679916 5.61486648,3.62066125 C5.44041295,3.76590316 5.31485928,3.75269934 5.1271896,3.6444281 C4.17298172,3.12683877 3.21877385,3.15192601 2.29099832,3.71704907 C1.92623187,3.93887307 1.91169407,4.10260031 2.20641479,4.39836564 L4.24302745,6.43835423 L4.40162156,6.59679996 L4.56021566,6.75524567 L6.6021148,8.79259351 C6.8968355,9.08835884 7.06071608,9.07251427 7.28274783,8.71469102 Z" id="Shape"></path>
                <path d="M2.94964372,6.99999999 L4,8.03579874 L0.11169998,10.9891199 C0.0951494984,11.0036267 0.0701175367,11.0036267 0.0535670546,10.9891199 L0.0099673603,10.9412142 C-0.00332245343,10.9254271 -0.00332245343,10.9026219 0.0099673603,10.8868348 C0.230608238,10.5786846 2.04461976,8.15362084 2.94964372,6.99999999 Z" id="Shape"></path>
            </g>
        </g>
    </g>
</svg>