<?xml version="1.0" encoding="UTF-8"?>
<svg width="12px" height="12px" viewBox="0 0 12 12" version="1.1" xmlns="http://www.w3.org/2000/svg" xmlns:xlink="http://www.w3.org/1999/xlink">
    <!-- Generator: Sketch 48.2 (47327) - http://www.bohemiancoding.com/sketch -->
    <title>pin_button</title>
    <desc>Created with Sketch.</desc>
    <defs></defs>
    <g id="S-C-02" stroke="none" stroke-width="1" fill="none" fill-rule="evenodd" transform="translate(-690.000000, -516.000000)">
        <g id="pin_button" transform="translate(690.000000, 516.000000)">
            <g id="Group-2" fill="#DEEBFF">
                <g id="Group">
                    <rect id="Rectangle-23-Copy-3" x="0" y="0" width="12" height="12" rx="2"></rect>
                </g>
            </g>
            <g id="noun_408356_cc" transform="translate(2.500000, 2.500000)" fill="#42526E">
                <path d="M4.63447589,5.54571247 C4.99443646,4.95754277 5.00957499,4.34920725 4.68073251,3.74255221 C4.61597325,3.62323778 4.60419884,3.54341475 4.69587104,3.43250275 C4.92210793,3.1602642 5.13068321,2.87374153 5.3510329,2.59730177 C5.51923878,2.39144237 5.65296244,2.37883874 5.85565052,2.53932504 C6.21561108,2.81996601 6.59827944,2.78299535 6.91787059,2.44857886 C7.0297275,2.33094492 7.02636338,2.23935849 6.91366545,2.13096722 C6.73704928,1.95199558 6.56211518,1.7721837 6.3880221,1.59657303 L5.96750742,1.17645181 L5.89686096,1.10587145 L5.82621449,1.03529108 L5.40569981,0.615169867 C5.22992468,0.441239683 5.0499444,0.266469256 4.87416926,0.0841366482 C4.76735853,-0.0259351107 4.6748453,-0.0301363229 4.55794222,0.0841366482 C4.22153048,0.403428773 4.18620725,0.786579323 4.46711105,1.14536284 C4.62774766,1.350382 4.61513222,1.48818176 4.40908003,1.6495083 C4.13238137,1.87049206 3.84559036,2.07887219 3.57309685,2.30405716 C3.46208097,2.39648383 3.38218318,2.3880814 3.26275702,2.31918152 C2.65553382,1.98980649 2.04831063,2.0057711 1.45790802,2.36539486 C1.22578392,2.50655559 1.21653259,2.61074565 1.40408214,2.79895995 L2.70010838,4.09713451 L2.8010319,4.19796361 L2.90195542,4.2987927 L4.20134578,5.59528678 C4.38889532,5.78350108 4.49318296,5.77341817 4.63447589,5.54571247 Z" id="Shape" fill-rule="nonzero"></path>
                <path d="M1.87704601,4.45454545 L2.54545455,5.11369011 L0.0710818058,6.9930763 C0.0605496809,7.0023079 0.0446202507,7.0023079 0.0340881257,6.9930763 L0.00634286566,6.96259086 C-0.00211428855,6.95254451 -0.00211428855,6.93803212 0.00634286566,6.92798577 C0.146750697,6.73189023 1.30112167,5.18866781 1.87704601,4.45454545 Z" id="Shape" fill-rule="nonzero"></path>
            </g>
        </g>
    </g>
</svg>