<?xml version="1.0" encoding="UTF-8"?>
<svg width="12px" height="12px" viewBox="0 0 12 12" version="1.1" xmlns="http://www.w3.org/2000/svg" xmlns:xlink="http://www.w3.org/1999/xlink">
    <!-- Generator: Sketch 48.2 (47327) - http://www.bohemiancoding.com/sketch -->
    <title>noun_1135514_cc</title>
    <desc>Created with Sketch.</desc>
    <defs></defs>
    <g id="UC-D-04" stroke="none" stroke-width="1" fill="none" fill-rule="evenodd" transform="translate(-1790.000000, -466.000000)">
        <g id="noun_1135514_cc" transform="translate(1790.000000, 466.000000)" fill="#FFFFFF" fill-rule="nonzero">
            <path d="M12,6 C12,6.28826087 11.7665217,6.52173913 11.4782609,6.52173913 L6.52173913,6.52173913 L6.52173913,11.4782609 C6.52173913,11.7662609 6.28826087,12 6,12 C5.71173913,12 5.47826087,11.7662609 5.47826087,11.4782609 L5.47826087,6.52173913 L0.52173913,6.52173913 C0.233478261,6.52173913 0,6.28826087 0,6 C0,5.71173913 0.233478261,5.47826087 0.52173913,5.47826087 L5.47826087,5.47826087 L5.47826087,0.52173913 C5.47826087,0.233478261 5.71173913,0 6,0 C6.28826087,0 6.52173913,0.233478261 6.52173913,0.52173913 L6.52173913,5.47826087 L11.4782609,5.47826087 C11.7665217,5.47826087 12,5.71173913 12,6 Z" id="Shape"></path>
        </g>
    </g>
</svg>