<?xml version="1.0" encoding="UTF-8"?>
<svg width="20px" height="20px" viewBox="0 0 20 20" version="1.1" xmlns="http://www.w3.org/2000/svg" xmlns:xlink="http://www.w3.org/1999/xlink">
    <!-- Generator: Sketch 48.2 (47327) - http://www.bohemiancoding.com/sketch -->
    <title>noun_1135514_cc</title>
    <desc>Created with Sketch.</desc>
    <defs></defs>
    <g id="Artboard" stroke="none" stroke-width="1" fill="none" fill-rule="evenodd" transform="translate(-663.000000, -238.000000)">
        <g id="noun_1135514_cc" transform="translate(663.000000, 238.000000)" fill="#42526E" fill-rule="nonzero">
            <path d="M20,10 C20,10.4804348 19.6108696,10.8695652 19.1304348,10.8695652 L10.8695652,10.8695652 L10.8695652,19.1304348 C10.8695652,19.6104348 10.4804348,20 10,20 C9.51956522,20 9.13043478,19.6104348 9.13043478,19.1304348 L9.13043478,10.8695652 L0.869565217,10.8695652 C0.389130435,10.8695652 0,10.4804348 0,10 C0,9.51956522 0.389130435,9.13043478 0.869565217,9.13043478 L9.13043478,9.13043478 L9.13043478,0.869565217 C9.13043478,0.389130435 9.51956522,0 10,0 C10.4804348,0 10.8695652,0.389130435 10.8695652,0.869565217 L10.8695652,9.13043478 L19.1304348,9.13043478 C19.6108696,9.13043478 20,9.51956522 20,10 Z" id="Shape"></path>
        </g>
    </g>
</svg>