<?xml version="1.0" encoding="UTF-8"?>
<svg width="14px" height="14px" viewBox="0 0 14 14" version="1.1" xmlns="http://www.w3.org/2000/svg" xmlns:xlink="http://www.w3.org/1999/xlink">
    <!-- Generator: Sketch 48.2 (47327) - http://www.bohemiancoding.com/sketch -->
    <title>pop-up_button</title>
    <desc>Created with Sketch.</desc>
    <defs></defs>
    <g id="S-A-02" stroke="none" stroke-width="1" fill="none" fill-rule="evenodd" transform="translate(-948.000000, -517.000000)">
        <g id="pop-up_button" transform="translate(949.000000, 518.000000)" fill="#5E6C84" stroke="#5E6C84">
            <g id="noun_604101_cc">
                <g id="Group" fill-rule="nonzero" stroke-width="0.5">
                    <path d="M3.16483516,0.04776 C2.94635794,0.0477818444 2.76925261,0.22488717 2.76923077,0.443364396 L2.76923077,8.88292484 C2.76925261,9.10140206 2.94635794,9.27850739 3.16483516,9.27852923 L11.6043956,9.27852923 C11.8228728,9.27850739 11.9999782,9.10140206 12,8.88292484 L12,0.443364396 C12.0010875,0.240016029 11.8478478,0.0689577314 11.6456044,0.04776 C11.6318775,0.0470441554 11.6181225,0.0470441554 11.6043956,0.04776 L3.16483516,0.04776 Z M3.56043956,0.838968791 L11.2087912,0.838968791 L11.2087912,8.48732044 L3.56043956,8.48732044 L3.56043956,0.838968791 Z M0.531593407,2.67688088 C0.424519376,2.67575314 0.321560785,2.71807444 0.246233096,2.79417871 C0.170905406,2.87028297 0.129642291,2.9736702 0.131868132,3.08072703 L0.131868132,11.5202875 C0.131889976,11.7387647 0.308995302,11.91587 0.527472527,11.9158919 L8.96703297,11.9158919 C9.10970212,11.9179096 9.24240581,11.8429522 9.31432921,11.7197224 C9.3862526,11.5964926 9.3862526,11.4440824 9.31432921,11.3208526 C9.24240581,11.1976228 9.10970212,11.1226654 8.96703297,11.1246831 L0.923076923,11.1246831 L0.923076923,3.08072703 C0.925272791,2.97509955 0.885131209,2.87298135 0.811595281,2.79712323 C0.738059352,2.72126512 0.637238105,2.67796903 0.531593407,2.67688088 Z" id="Shape"></path>
                </g>
            </g>
        </g>
    </g>
</svg>