<?xml version="1.0" encoding="UTF-8"?>
<svg width="9px" height="9px" viewBox="0 0 9 9" version="1.1" xmlns="http://www.w3.org/2000/svg" xmlns:xlink="http://www.w3.org/1999/xlink">
    <!-- Generator: Sketch 48.2 (47327) - http://www.bohemiancoding.com/sketch -->
    <title>noun_604101_cc</title>
    <desc>Created with Sketch.</desc>
    <defs></defs>
    <g id="S-A-03" stroke="none" stroke-width="1" fill="none" fill-rule="evenodd" transform="translate(-872.000000, -908.000000)">
        <g id="Group-14" transform="translate(739.000000, 896.000000)" fill="#4c9aff" fill-rule="nonzero">
            <g id="noun_604101_cc" transform="translate(133.000000, 12.000000)">
                <g id="Group">
                    <path d="M2.37362637,0.03582 C2.20976845,0.0358363833 2.07693946,0.168665377 2.07692308,0.332523297 L2.07692308,6.66219363 C2.07693946,6.82605155 2.20976845,6.95888054 2.37362637,6.95889692 L8.7032967,6.95889692 C8.86715462,6.95888054 8.99998362,6.82605155 9,6.66219363 L9,0.332523297 C9.00081565,0.180012022 8.88588585,0.0517182985 8.7342033,0.03582 C8.72390809,0.0352831166 8.71359191,0.0352831166 8.7032967,0.03582 L2.37362637,0.03582 Z M2.67032967,0.629226593 L8.40659341,0.629226593 L8.40659341,6.36549033 L2.67032967,6.36549033 L2.67032967,0.629226593 Z M0.398695055,2.00766066 C0.318389532,2.00681486 0.241170589,2.03855583 0.184674822,2.09563403 C0.128179055,2.15271223 0.0972317179,2.23025265 0.0989010989,2.31054527 L0.0989010989,8.6402156 C0.0989174822,8.80407352 0.231746476,8.93690252 0.395604396,8.9369189 L6.72527473,8.9369189 C6.83227659,8.93843217 6.93180436,8.88221414 6.98574691,8.78979179 C7.03968945,8.69736944 7.03968945,8.58306177 6.98574691,8.49063942 C6.93180436,8.39821707 6.83227659,8.34199903 6.72527473,8.34351231 L0.692307692,8.34351231 L0.692307692,2.31054527 C0.693954593,2.23132466 0.663848406,2.15473601 0.60869646,2.09784242 C0.553544514,2.04094884 0.477928579,2.00847678 0.398695055,2.00766066 Z" id="Shape"></path>
                </g>
            </g>
        </g>
    </g>
</svg>
