<?xml version="1.0" encoding="UTF-8"?>
<svg width="4px" height="7px" viewBox="0 0 4 7" version="1.1" xmlns="http://www.w3.org/2000/svg" xmlns:xlink="http://www.w3.org/1999/xlink">
    <!-- Generator: Sketch 48.2 (47327) - http://www.bohemiancoding.com/sketch -->
    <title>noun_727759_cc</title>
    <desc>Created with Sketch.</desc>
    <defs></defs>
    <g id="S-A-02" stroke="none" stroke-width="1" fill="none" fill-rule="evenodd" transform="translate(-1035.000000, -729.000000)">
        <g id="noun_727759_cc" transform="translate(1035.000000, 729.000000)" fill="#172B4D" fill-rule="nonzero">
            <g id="Group">
                <path d="M1.99775482,0.0429681356 C1.01276671,0.0429681356 0.210025529,0.689768136 0.0102255294,1.49635797 C-0.0370450588,1.67772915 0.0849196471,1.88606814 0.265272588,1.93197153 C0.445602,1.97787492 0.651025529,1.85288339 0.694802,1.67061051 C0.802096118,1.23750034 1.33351953,0.754832542 1.99775482,0.754832542 C2.32497835,0.754832542 2.66839012,0.875968136 2.91053129,1.07368847 C3.15268424,1.27140881 3.29331953,1.52601898 3.29331953,1.82262915 C3.29331953,2.21217322 3.21446071,2.38703085 3.10928424,2.52336475 C3.00411953,2.65971051 2.83560188,2.76570712 2.61608424,2.92378847 C2.39657835,3.08188169 2.13530776,3.30015593 1.94621365,3.65420169 C1.75714306,4.00824746 1.64808424,4.48224237 1.64808424,5.1446678 C1.62977835,5.34129661 1.80371953,5.53391525 1.99957835,5.53391525 C2.19544894,5.53391525 2.36939012,5.34129661 2.35108424,5.1446678 C2.35108424,4.56133051 2.44843718,4.21595763 2.56823718,3.99158983 C2.68804894,3.76725763 2.83597835,3.64441356 3.02830776,3.50589661 C3.22063718,3.36737966 3.46502541,3.22494746 3.66873129,2.96086475 C3.87244894,2.69678678 4.00000188,2.32291559 4.00000188,1.82262915 C4.00000188,1.28873085 3.72759012,0.827774915 3.35221365,0.521246102 C2.97681365,0.214729153 2.49328424,0.0429681356 1.99775482,0.0429681356 Z M2.00140188,5.97517627 C1.74121365,5.97517627 1.530296,6.18765593 1.530296,6.44975254 C1.530296,6.71184915 1.74121365,6.92432881 2.00140188,6.92432881 C2.26157835,6.92432881 2.47251953,6.71184915 2.47251953,6.44975254 C2.47251953,6.18765593 2.26157835,5.97517627 2.00140188,5.97517627 Z" id="Shape"></path>
            </g>
        </g>
    </g>
</svg>