<?xml version="1.0" encoding="UTF-8"?>
<svg width="10px" height="9px" viewBox="0 0 10 9" version="1.1" xmlns="http://www.w3.org/2000/svg" xmlns:xlink="http://www.w3.org/1999/xlink">
    <!-- Generator: Sketch 48.2 (47327) - http://www.bohemiancoding.com/sketch -->
    <title>refresh_icon</title>
    <desc>Created with Sketch.</desc>
    <defs></defs>
    <g id="S-A-03" stroke="none" stroke-width="1" fill="none" fill-rule="evenodd" transform="translate(-1867.000000, -552.000000)">
        <g id="refresh_button" transform="translate(1864.000000, 549.000000)" fill="#172B4D">
            <g id="refresh_icon" transform="translate(3.500000, 3.500000)">
                <g id="loading">
                    <path d="M4.05,8 C1.81674931,8 0,6.2056797 0,4 C0,1.7943203 1.81674931,0 4.05,0 C6.28325069,0 8.1,1.79457789 8.1,4 C8.1,4.12621547 7.99646146,4.22873334 7.8684075,4.22873334 C7.74061433,4.22873334 7.63681499,4.12647305 7.63681499,4 C7.63681499,2.04649366 6.02766437,0.45695151 4.0497392,0.45695151 C2.07155322,0.45695151 0.462402602,2.04649366 0.462402602,4 C0.462402602,5.95350634 2.07155322,7.54279091 4.0497392,7.54279091 C5.3151523,7.54279091 6.50049907,6.8728186 7.14337691,5.79457789 C7.2083167,5.68562045 7.35019319,5.64981647 7.46025179,5.71369695 C7.57031039,5.77757744 7.60682272,5.91770236 7.54240453,6.0266598 C6.81711314,7.24373752 5.47867538,8 4.05,8 Z" id="Shape" fill-rule="nonzero"></path>
                    <path d="M7.89282397,4.44444444 C7.85502489,4.44444444 7.81648465,4.43417055 7.7816502,4.41285223 L6.4077895,3.5693657 C6.30353321,3.50541072 6.26894582,3.36568579 6.33046197,3.25729623 C6.39222517,3.14890667 6.5266219,3.11294804 6.63087819,3.17715987 L7.82957845,3.91302738 L8.60112439,2.76414941 C8.67054623,2.6608968 8.80716643,2.63572576 8.90623461,2.70764301 C9.00554984,2.77956025 9.02976102,2.92159681 8.96058623,3.02484942 L8.07267842,4.34658562 C8.03018533,4.41002691 7.96224581,4.44444444 7.89282397,4.44444444 Z" id="Shape" fill-rule="nonzero"></path>
                </g>
            </g>
        </g>
    </g>
</svg>