<?xml version="1.0" encoding="UTF-8"?>
<svg width="8px" height="12px" viewBox="0 0 8 12" version="1.1" xmlns="http://www.w3.org/2000/svg" xmlns:xlink="http://www.w3.org/1999/xlink">
    <!-- Generator: Sketch 48.2 (47327) - http://www.bohemiancoding.com/sketch -->
    <title>freeze_button</title>
    <desc>Created with Sketch.</desc>
    <defs></defs>
    <g id="UC-A-02" stroke="none" stroke-width="1" fill="none" fill-rule="evenodd" transform="translate(-782.000000, -466.000000)">
        <g id="freeze_button" transform="translate(782.000000, 466.000000)" fill="black">
            <path d="M6.00440154,6.66666667 C6.37016047,6.66666667 6.66666667,6.37075679 6.66666667,6 L6.66666667,6 C6.66666667,5.63181017 6.37003581,5.33333333 6.00440154,5.33333333 L-4.67106821,5.33333333 C-5.03682714,5.33333333 -5.33333333,5.62924321 -5.33333333,6 L-5.33333333,6 C-5.33333333,6.36818983 -5.03670247,6.66666667 -4.67106821,6.66666667 L6.00440154,6.66666667 Z" id="Path" transform="translate(0.666667, 6.000000) rotate(90.000000) translate(-0.666667, -6.000000) "></path>
            <path d="M12.0044015,6.66666667 C12.3701605,6.66666667 12.6666667,6.37075679 12.6666667,6 L12.6666667,6 C12.6666667,5.63181017 12.3700358,5.33333333 12.0044015,5.33333333 L1.32893179,5.33333333 C0.963172861,5.33333333 0.666666667,5.62924321 0.666666667,6 L0.666666667,6 C0.666666667,6.36818983 0.963297526,6.66666667 1.32893179,6.66666667 L12.0044015,6.66666667 Z" id="Path" transform="translate(6.666667, 6.000000) rotate(90.000000) translate(-6.666667, -6.000000) "></path>
        </g>
    </g>
</svg>
