<?xml version="1.0" encoding="UTF-8"?>
<svg width="37px" height="22px" viewBox="0 0 37 22" version="1.1" xmlns="http://www.w3.org/2000/svg" xmlns:xlink="http://www.w3.org/1999/xlink">
    <!-- Generator: Sketch 48.2 (47327) - http://www.bohemiancoding.com/sketch -->
    <title>noun_974918_cc</title>
    <desc>Created with Sketch.</desc>
    <defs></defs>
    <g id="S-C-03" stroke="none" stroke-width="1" fill="none" fill-rule="evenodd" transform="translate(-332.000000, -950.000000)">
        <g id="noun_974918_cc" transform="translate(332.000000, 950.000000)" fill="#FFFFFF" fill-rule="nonzero">
            <path d="M18.4997166,0 C9.64975871,0 2.20554577,5.11836504 0,11 C2.20554577,16.881635 9.64975871,22 18.4997166,22 C27.3496745,22 34.7938874,16.881635 37,11 C34.7938874,5.11836504 27.3496745,0 18.4997166,0 Z M18.4997166,17.9134315 C14.6633933,17.9134315 11.5531827,14.8186061 11.5531827,11 C11.5531827,7.18195805 14.6639602,4.08656854 18.4997166,4.08656854 C22.3371735,4.08656854 25.4468173,7.18195805 25.4468173,11 C25.4468173,14.8186061 22.3371735,17.9134315 18.4997166,17.9134315 Z M18.5847415,8.41909842 C17.1053083,8.41909842 15.9064573,9.61223652 15.9064573,11.0846197 C15.9064573,12.5570029 17.1053083,13.750141 18.5847415,13.750141 C20.0636078,13.750141 21.2630257,12.5570029 21.2630257,11.0846197 C21.2630257,9.61280066 20.0641746,8.41909842 18.5847415,8.41909842 Z" id="Shape"></path>
        </g>
    </g>
</svg>