<?xml version="1.0" encoding="UTF-8"?>
<svg width="764px" height="637px" viewBox="0 0 764 637" version="1.1" xmlns="http://www.w3.org/2000/svg" xmlns:xlink="http://www.w3.org/1999/xlink">
    <!-- Generator: Sketch 48.2 (47327) - http://www.bohemiancoding.com/sketch -->
    <title>mdpi/Artboard</title>
    <desc>Created with Sketch.</desc>
    <defs>
        <polygon id="path-1" points="0 5.78345006 7.62935625 5.78345006 7.62935625 -0.0001468125 0 -0.0001468125"></polygon>
        <polygon id="path-3" points="0 5.78345006 7.62935625 5.78345006 7.62935625 -0.0001468125 0 -0.0001468125"></polygon>
    </defs>
    <g id="Page-1" stroke="none" stroke-width="1" fill="none" fill-rule="evenodd">
        <g id="Artboard">
            <rect id="Rectangle-3" fill="#FFFFFF" x="752" y="0" width="12" height="34"></rect>
            <rect id="Rectangle-4" fill="#0E2566" x="0" y="628" width="8" height="9"></rect>
            <rect id="Rectangle-4" fill="#0E2566" x="756" y="628" width="8" height="9"></rect>
            <rect id="Rectangle-4" fill="#0E2566" x="0" y="0" width="8" height="9"></rect>
            <rect id="Rectangle-4" fill="#0E2566" x="756" y="0" width="8" height="9"></rect>
            <text id="Add-Step-Button-(9x9" font-family="OpenSans-Regular, Open Sans" font-size="7" font-weight="normal" fill="#4A4A4A">
                <tspan x="17" y="29">Add Step Button (9x9)</tspan>
                <tspan x="17" y="38">(x = 18, y = 60)</tspan>
            </text>
            <text id="Detail-view-(blue)-B" font-family="OpenSans-Regular, Open Sans" font-size="7" font-weight="normal" fill="#4A4A4A">
                <tspan x="17" y="119">Detail view (blue) Button (15x10)</tspan>
                <tspan x="17" y="128">(x = 18, y = 148)</tspan>
            </text>
            <text id="Drag-Icon-(6x10)-(x" font-family="OpenSans-Regular, Open Sans" font-size="7" font-weight="normal" fill="#4A4A4A">
                <tspan x="157" y="119">Drag Icon (6x10)</tspan>
                <tspan x="157" y="128">(x = 157, y = 148)</tspan>
            </text>
            <text id="Attachment-Edit-Butt" font-family="OpenSans-Regular, Open Sans" font-size="7" font-weight="normal" fill="#4A4A4A">
                <tspan x="247" y="119">Attachment Edit Button (9x8)</tspan>
                <tspan x="247" y="128">(x = 247, y = 148)</tspan>
            </text>
            <text id="Execute-Button-(7x15" font-family="OpenSans-Regular, Open Sans" font-size="7" font-weight="normal" fill="#4A4A4A">
                <tspan x="377" y="119">Execute Button (7x15)</tspan>
                <tspan x="377" y="128">(x = 379, y = 148)</tspan>
            </text>
            <text id="Edit-Button-(13x16)" font-family="OpenSans-Regular, Open Sans" font-size="7" font-weight="normal" fill="#4A4A4A">
                <tspan x="477" y="119">Edit Button (13x16)</tspan>
                <tspan x="477" y="128">(x = 477, y = 148)</tspan>
            </text>
            <text id="Folder-Icon-(13x10)" font-family="OpenSans-Regular, Open Sans" font-size="7" font-weight="normal" fill="#4A4A4A">
                <tspan x="567" y="119">Folder Icon (13x10)</tspan>
                <tspan x="567" y="128">(x = 566, y = 148)</tspan>
            </text>
            <text id="Pin-Button-(12x12)-(" font-family="OpenSans-Regular, Open Sans" font-size="7" font-weight="normal" fill="#4A4A4A">
                <tspan x="667" y="119">Pin Button (12x12)</tspan>
                <tspan x="667" y="128">(x = 667, y = 148)</tspan>
            </text>
            <g id="pin_button" transform="translate(667.000000, 148.000000)" fill-rule="nonzero">
                <g id="Group-2" fill="#DEEBFF">
                    <g id="Group">
                        <rect id="Rectangle-23-Copy-3" x="0" y="0" width="12" height="12" rx="2"></rect>
                    </g>
                </g>
                <g id="noun_408356_cc" transform="translate(2.500000, 2.500000)" fill="#42526E">
                    <path d="M4.63447589,5.54571247 C4.99443646,4.95754277 5.00957499,4.34920725 4.68073251,3.74255221 C4.61597325,3.62323778 4.60419884,3.54341475 4.69587104,3.43250275 C4.92210793,3.1602642 5.13068321,2.87374153 5.3510329,2.59730177 C5.51923878,2.39144237 5.65296244,2.37883874 5.85565052,2.53932504 C6.21561108,2.81996601 6.59827944,2.78299535 6.91787059,2.44857886 C7.0297275,2.33094492 7.02636338,2.23935849 6.91366545,2.13096722 C6.73704928,1.95199558 6.56211518,1.7721837 6.3880221,1.59657303 L5.96750742,1.17645181 L5.89686096,1.10587145 L5.82621449,1.03529108 L5.40569981,0.615169867 C5.22992468,0.441239683 5.0499444,0.266469256 4.87416926,0.0841366482 C4.76735853,-0.0259351107 4.6748453,-0.0301363229 4.55794222,0.0841366482 C4.22153048,0.403428773 4.18620725,0.786579323 4.46711105,1.14536284 C4.62774766,1.350382 4.61513222,1.48818176 4.40908003,1.6495083 C4.13238137,1.87049206 3.84559036,2.07887219 3.57309685,2.30405716 C3.46208097,2.39648383 3.38218318,2.3880814 3.26275702,2.31918152 C2.65553382,1.98980649 2.04831063,2.0057711 1.45790802,2.36539486 C1.22578392,2.50655559 1.21653259,2.61074565 1.40408214,2.79895995 L2.70010838,4.09713451 L2.8010319,4.19796361 L2.90195542,4.2987927 L4.20134578,5.59528678 C4.38889532,5.78350108 4.49318296,5.77341817 4.63447589,5.54571247 Z" id="Shape"></path>
                    <path d="M1.87704601,4.45454545 L2.54545455,5.11369011 L0.0710818058,6.9930763 C0.0605496809,7.0023079 0.0446202507,7.0023079 0.0340881257,6.9930763 L0.00634286566,6.96259086 C-0.00211428855,6.95254451 -0.00211428855,6.93803212 0.00634286566,6.92798577 C0.146750697,6.73189023 1.30112167,5.18866781 1.87704601,4.45454545 Z" id="Shape"></path>
                </g>
            </g>
            <g id="filter_button" transform="translate(477.000000, 148.000000)" fill="#5E6C84" fill-rule="nonzero">
                <path d="M0.0926056594,0.379273838 C-0.0431031467,0.617758207 -0.0237161744,0.89598997 0.111992632,1.13447434 C0.111992632,1.13447434 0.131379604,1.15434804 0.131379604,1.15434804 L4.8230269,7.89153146 L4.8230269,15.5031576 C4.8230269,15.7018945 4.93934873,15.8807578 5.09444452,15.9602526 C5.15260544,16 5.23015333,16 5.30770121,16 C5.42402305,16 5.52095791,15.9602526 5.61789277,15.8807578 L8.00249036,13.833767 C8.1188122,13.7343985 8.17697311,13.5952826 8.17697311,13.4561667 L8.17697311,7.89153146 L12.8686204,1.15434804 C12.8686204,1.15434804 12.8880074,1.13447434 12.8880074,1.13447434 C13.0237162,0.89598997 13.0431031,0.617758207 12.9073943,0.379273838 C12.7716855,0.140789469 12.5390419,0.00167358698 12.2676243,0.00167358698 L0.712988774,0.00167358698 C0.460958133,-0.0182001104 0.208927493,0.140789469 0.0926056594,0.379273838 Z M11.7829499,0.97548476 L7.28517238,7.45431011 C7.22701146,7.5338049 7.18823752,7.63317339 7.18823752,7.75241558 L7.18823752,13.2375561 L5.77298854,14.4498516 L5.77298854,7.73254188 C5.77298854,7.63317339 5.73421459,7.5338049 5.67605368,7.43443642 L1.19766308,0.97548476 L11.7829499,0.97548476 Z" id="Shape"></path>
            </g>
            <g id="execute_icon" transform="translate(379.000000, 148.000000)" fill="#172B4D" font-family="Avenir-Book, Avenir" font-size="11" font-weight="normal">
                <text id="E">
                    <tspan x="0" y="11">E</tspan>
                </text>
            </g>
            <g id="drag_icon" transform="translate(157.000000, 148.000000)" fill="#A5ADBA" fill-rule="nonzero">
                <g id="Group-3">
                    <circle id="Oval-2" cx="1" cy="1" r="1"></circle>
                </g>
                <g id="Group-3" transform="translate(0.000000, 4.000000)">
                    <circle id="Oval-2" cx="1" cy="1" r="1"></circle>
                </g>
                <g id="Group-3" transform="translate(0.000000, 8.000000)">
                    <circle id="Oval-2" cx="1" cy="1" r="1"></circle>
                </g>
                <g id="Group-3" transform="translate(4.000000, 0.000000)">
                    <circle id="Oval-2" cx="1" cy="1" r="1"></circle>
                </g>
                <g id="Group-3" transform="translate(4.000000, 4.000000)">
                    <circle id="Oval-2" cx="1" cy="1" r="1"></circle>
                </g>
                <g id="Group-3" transform="translate(4.000000, 8.000000)">
                    <circle id="Oval-2" cx="1" cy="1" r="1"></circle>
                </g>
            </g>
            <text id="Back-Button-(14x13)" font-family="OpenSans-Regular, Open Sans" font-size="7" font-weight="normal" fill="#4A4A4A">
                <tspan x="117" y="29">Back Button (14x13)</tspan>
                <tspan x="117" y="38">(x = 117, y = 60)</tspan>
            </text>
            <path d="M18.5,94.5 L740.58379,94.5" id="Line" stroke="#979797" opacity="0.4" stroke-linecap="square"></path>
            <path d="M18.5,184.5 L740.58379,184.5" id="Line" stroke="#979797" opacity="0.4" stroke-linecap="square"></path>
            <path d="M18.5,284.5 L740.58379,284.5" id="Line" stroke="#979797" opacity="0.4" stroke-linecap="square"></path>
            <g id="delete_button" transform="translate(307.000000, 60.000000)" fill="#172B4D" fill-rule="nonzero">
                <path d="M6.22972973,1.07142857 C6.22972973,0.476190476 5.7972973,0 5.25675676,0 L3.74324324,0 C3.2027027,0 2.77027027,0.476190476 2.77027027,1.07142857 L2.77027027,1.64285714 L0.716216216,1.64285714 C0.597297297,1.64285714 0.5,1.75 0.5,1.88095238 C0.5,2.01190476 0.597297297,2.11904762 0.716216216,2.11904762 L1.68918919,2.11904762 L1.68918919,7.33333333 C1.68918919,8.25 2.37027027,9 3.2027027,9 L5.7972973,9 C6.62972973,9 7.31081081,8.25 7.31081081,7.33333333 L7.31081081,2.11904762 L8.28378378,2.11904762 C8.4027027,2.11904762 8.5,2.01190476 8.5,1.88095238 C8.5,1.75 8.4027027,1.64285714 8.28378378,1.64285714 L6.22972973,1.64285714 L6.22972973,1.07142857 Z M3.2027027,1.07142857 C3.2027027,0.738095238 3.44054054,0.476190476 3.74324324,0.476190476 L5.25675676,0.476190476 C5.55945946,0.476190476 5.7972973,0.738095238 5.7972973,1.07142857 L5.7972973,1.64285714 L3.2027027,1.64285714 L3.2027027,1.07142857 Z M6.87837838,7.33333333 C6.87837838,7.98809524 6.39189189,8.52380952 5.7972973,8.52380952 L3.2027027,8.52380952 C2.60810811,8.52380952 2.12162162,7.98809524 2.12162162,7.33333333 L2.12162162,2.11904762 L6.87837838,2.11904762 L6.87837838,7.33333333 Z" id="Shape"></path>
            </g>
            <g id="add-step-down_icon" transform="translate(18.000000, 60.000000)" fill="#0052CC" fill-rule="nonzero">
                <polygon id="Shape" points="9 4.88461538 4.5 9 0 4.88461538 0.588785047 4.34615385 4.07943925 7.53846154 4.07943925 0 4.92056075 0 4.92056075 7.53846154 8.41121495 4.34615385"></polygon>
            </g>
            <g id="back_button" transform="translate(117.000000, 60.000000)" fill="#5E6C84" fill-rule="nonzero">
                <rect id="Rectangle-23" x="0" y="5.5" width="14" height="2" rx="1"></rect>
                <path d="M7.20710678,1.70710678 C7.59763107,1.31658249 7.59763107,0.683417511 7.20710678,0.292893219 C6.81658249,-0.0976310729 6.18341751,-0.0976310729 5.79289322,0.292893219 L0.292893219,5.79289322 C-0.0976310729,6.18341751 -0.0976310729,6.81658249 0.292893219,7.20710678 L5.79289322,12.7071068 C6.18341751,13.0976311 6.81658249,13.0976311 7.20710678,12.7071068 C7.59763107,12.3165825 7.59763107,11.6834175 7.20710678,11.2928932 L2.41421356,6.5 L7.20710678,1.70710678 Z" id="Path-6"></path>
            </g>
            <text id="Cycle-Icon-(14x14)-(" font-family="OpenSans-Regular, Open Sans" font-size="7" font-weight="normal" fill="#4A4A4A">
                <tspan x="217" y="29">Cycle Icon (14x14)</tspan>
                <tspan x="217" y="38">(x = 218, y = 60)</tspan>
            </text>
            <text id="Delete-Button-(9x9)" font-family="OpenSans-Regular, Open Sans" font-size="7" font-weight="normal" fill="#4A4A4A">
                <tspan x="307" y="29">Delete Button (9x9)</tspan>
                <tspan x="307" y="38">(x = 307, y = 60)</tspan>
            </text>
            <text id="Attachment-Delete-Bu" font-family="OpenSans-Regular, Open Sans" font-size="7" font-weight="normal" fill="#4A4A4A">
                <tspan x="407" y="29">Attachment Delete Button (24x26)</tspan>
                <tspan x="407" y="38">(x = 407, y = 60)</tspan>
            </text>
            <text id="Detail-view-(white)" font-family="OpenSans-Regular, Open Sans" font-size="7" font-weight="normal" fill="#4A4A4A">
                <tspan x="567" y="29">Detail view (white) Button (15x10)</tspan>
                <tspan x="567" y="38">(x = 567, y = 60)</tspan>
            </text>
            <g id="cycle_icon" transform="translate(218.000000, 60.000000)">
                <g id="S-A-02" transform="translate(-354.000000, -438.000000)" stroke="#5E6C84">
                    <g id="cycle_other_icon" transform="translate(355.000000, 439.000000)">
                        <g id="Testcycle_2">
                            <g id="Group">
                                <path d="M4.06533333,4.7112 L7.91733333,4.7112" id="Shape" stroke-width="1.1266"></path>
                                <path d="M4.06533333,6.4571 L7.91733333,6.4571" id="Shape" stroke-width="1.1266"></path>
                                <path d="M4.06533333,8.2316 L6.412,8.2316" id="Shape" stroke-width="1.1266"></path>
                                <g id="Shape">
                                    <g transform="translate(0.000000, 5.850000)">
                                        <path d="M7.50133333,4.0937 C7.55866667,4.0391 7.63866667,4.0079 7.72466667,4.01375 L10.104,4.17365 C10.2526667,4.1834 10.37,4.30105 10.376,4.44665 L10.4706667,6.7704 C10.4766667,6.9277 10.3506667,7.0603 10.19,7.06615 C10.0286667,7.07265 9.89266667,6.9498 9.88666667,6.7925 L9.80266667,4.72485 L7.68533333,4.5825 C7.524,4.5721 7.40266667,4.4356 7.414,4.27895 C7.41866667,4.2055 7.45133333,4.14115 7.50133333,4.0937 Z" stroke-width="0.2458" fill="#5E6C84" fill-rule="nonzero"></path>
                                        <path d="M10.0013333,4.68065 C7.73133333,6.8302 4.104,6.77885 1.89866667,4.5656 C0.682,3.34425 0.152666667,1.71925 0.304666667,0.1469" stroke-width="1.0545"></path>
                                    </g>
                                    <g transform="translate(1.333333, 0.000000)">
                                        <path d="M3.16533333,3.0641 C3.108,3.11805 3.028,3.14925 2.942,3.14405 L0.562666667,2.98415 C0.414,2.9744 0.296666667,2.85675 0.290666667,2.71115 L0.196,0.3874 C0.19,0.2301 0.316,0.0975 0.476666667,0.09165 C0.638,0.08515 0.774,0.208 0.78,0.3653 L0.864,2.43295 L2.98133333,2.5753 C3.14266667,2.5857 3.26466667,2.7222 3.25333333,2.87885 C3.248,2.9523 3.21533333,3.01665 3.16533333,3.0641 Z" stroke-width="0.2458" fill="#5E6C84" fill-rule="nonzero"></path>
                                        <path d="M0.665333333,2.47715 C2.93533333,0.3276 6.56266667,0.37895 8.768,2.5922 C10.0553333,3.8844 10.5733333,5.62835 10.3286667,7.2839" stroke-width="1.0545"></path>
                                    </g>
                                </g>
                            </g>
                        </g>
                    </g>
                </g>
            </g>
            <g id="delete-attachment_icon" transform="translate(407.000000, 60.000000)" fill="#FFFFFF" fill-rule="nonzero">
                <path d="M20.0443136,7.00002027 L3.96085503,7.00002027 C3.68774179,6.99822459 3.42695222,7.11583365 3.24444706,7.32310094 C3.0619419,7.53036823 2.97519909,7.80744441 3.00615824,8.08424941 L4.59731956,22.257137 C4.83525816,24.3898235 6.60466093,26.0005577 8.70888041,25.9999999 L15.560421,25.9999999 C17.6933981,25.9997186 19.4765341,24.3452556 19.6783465,22.1792283 L20.9958281,8.06477224 C21.0209771,7.79113819 20.9316093,7.51940359 20.749771,7.3166034 C20.5679327,7.1138032 20.3105551,6.99882035 20.0411313,7.00002027 L20.0443136,7.00002027 Z" id="Shape"></path>
                <path d="M16.2987634,2.23785166 C16.2987634,1.00192032 15.2858045,0 14.0362563,0 L9.96374368,0 C8.71419555,0 7.70123665,1.00192032 7.70123665,2.23785166 L7.70123665,3.08184143 L0.5,3.08184143 L0.5,5 L23.5,5 L23.5,3.08184143 L16.2987634,3.08184143 L16.2987634,2.23785166 Z M14.3594716,3.08184143 L9.64052839,3.08184143 L9.64052839,2.23785166 C9.64052839,2.06129004 9.7852368,1.91815857 9.96374368,1.91815857 L14.0362563,1.91815857 C14.2147632,1.91815857 14.3594716,2.06129004 14.3594716,2.23785166 L14.3594716,3.08184143 Z" id="Shape"></path>
            </g>
            <g id="detail-view_icon" transform="translate(567.000000, 60.000000)" fill="#FFFFFF" fill-rule="nonzero">
                <rect id="Rectangle-6" x="0" y="0" width="15" height="10"></rect>
            </g>
            <g id="details-view-icon_blue" transform="translate(18.000000, 148.000000)" fill="#42526E" fill-rule="nonzero">
                <rect id="Rectangle-6" x="0" y="0" width="15" height="10"></rect>
            </g>
            <text id="List-view-(white)-Bu" font-family="OpenSans-Regular, Open Sans" font-size="7" font-weight="normal" fill="#4A4A4A">
                <tspan x="17" y="209">List view (white) Button (15x7)</tspan>
                <tspan x="17" y="218">(x = 18, y = 238)</tspan>
            </text>
            <text id="List-view-(white)-Bu" font-family="OpenSans-Regular, Open Sans" font-size="7" font-weight="normal" fill="#4A4A4A">
                <tspan x="17" y="209">List view (white) Button (15x7)</tspan>
                <tspan x="17" y="218">(x = 18, y = 238)</tspan>
            </text>
            <text id="List-view-(blue)-But" font-family="OpenSans-Regular, Open Sans" font-size="7" font-weight="normal" fill="#4A4A4A">
                <tspan x="157" y="209">List view (blue) Button (15x7)</tspan>
                <tspan x="157" y="218">(x = 156, y = 238)</tspan>
            </text>
            <text id="More-Button-(3x13)-(" font-family="OpenSans-Regular, Open Sans" font-size="7" font-weight="normal" fill="#4A4A4A">
                <tspan x="287" y="209">More Button (3x13)</tspan>
                <tspan x="287" y="218">(x = 287, y = 238)</tspan>
            </text>
            <text id="Open-in-tab-Button-(" font-family="OpenSans-Regular, Open Sans" font-size="7" font-weight="normal" fill="#4A4A4A">
                <tspan x="387" y="209">Open-in-tab Button (11x11)</tspan>
                <tspan x="387" y="218">(x = 387, y = 238)</tspan>
            </text>
            <text id="Plus-Button-(20x20)" font-family="OpenSans-Regular, Open Sans" font-size="7" font-weight="normal" fill="#4A4A4A">
                <tspan x="507" y="209">Plus Button (20x20)</tspan>
                <tspan x="507" y="218">(x = 507, y = 238)</tspan>
            </text>
            <text id="Attachment-Plus-Butt" font-family="OpenSans-Regular, Open Sans" font-size="7" font-weight="normal" fill="#4A4A4A">
                <tspan x="603" y="209">Attachment Plus Button (29x29)</tspan>
                <tspan x="603" y="218">(x = 603, y = 238)</tspan>
            </text>
            <g id="more_button" transform="translate(287.000000, 238.000000)" fill="#FFFFFF" fill-rule="nonzero">
                <circle id="Oval-2" cx="1.5" cy="1.5" r="1.5"></circle>
                <circle id="Oval-2" cx="1.5" cy="6.5" r="1.5"></circle>
                <circle id="Oval-2" cx="1.5" cy="11.5" r="1.5"></circle>
            </g>
            <g id="edit_button" transform="translate(247.000000, 148.000000)" fill="#FFFFFF" fill-rule="nonzero">
                <polygon id="Path" points="6.580125 0 5.14285714 1.37569231 5.21694643 1.30492308 7.03510714 3.04553846 8.39828571 1.74061538"></polygon>
                <polygon id="Path" points="0 6.14784615 0 7.88846154 1.81832143 7.88846154 6.99396429 2.934 6.31205357 3.58661538 4.49389286 1.84615385"></polygon>
            </g>
            <g id="folder_icon" transform="translate(566.000000, 148.000000)" fill="#5E6C84" fill-rule="nonzero">
                <path d="M11.6617647,1.53846154 L6.63382353,1.53846154 C6.57647059,1.53846154 6.53823529,1.51923077 6.5,1.48076923 L5.41029412,0.384615385 C5.16176471,0.134615385 4.81764706,0 4.45441176,0 L1.33823529,0 C0.592647059,0 0,0.596153846 0,1.34615385 L0,8.65384615 C0,9.40384615 0.592647059,10 1.33823529,10 L11.6617647,10 C12.4073529,10 13,9.40384615 13,8.65384615 L13,2.88461538 C13,2.13461538 12.4073529,1.53846154 11.6617647,1.53846154 Z M11.6617647,9.23076923 L1.33823529,9.23076923 C1.01323529,9.23076923 0.764705882,8.98076923 0.764705882,8.65384615 L0.764705882,1.34615385 C0.764705882,1.01923077 1.01323529,0.769230769 1.33823529,0.769230769 L4.45441176,0.769230769 C4.60735294,0.769230769 4.76029412,0.826923077 4.85588235,0.942307692 L5.94558824,2.03846154 C6.11764706,2.21153846 6.36617647,2.32692308 6.61470588,2.32692308 L11.6617647,2.32692308 C11.9867647,2.32692308 12.2352941,2.57692308 12.2352941,2.90384615 L12.2352941,8.67307692 C12.2352941,8.98076923 11.9867647,9.23076923 11.6617647,9.23076923 Z" id="Shape"></path>
            </g>
            <g id="list-view_icon-white" transform="translate(18.000000, 238.000000)" fill="#FFFFFF" fill-rule="nonzero">
                <rect id="Rectangle-6" x="0" y="0" width="15" height="1"></rect>
                <rect id="Rectangle-6" x="0" y="3" width="15" height="1"></rect>
                <rect id="Rectangle-6" x="0" y="6" width="15" height="1"></rect>
            </g>
            <g id="list-view_icon" transform="translate(156.000000, 238.000000)" fill="#42526E" fill-rule="nonzero">
                <rect id="Rectangle-6" x="0" y="0" width="15" height="1"></rect>
                <rect id="Rectangle-6" x="0" y="3" width="15" height="1"></rect>
                <rect id="Rectangle-6" x="0" y="6" width="15" height="1"></rect>
            </g>
            <text id="Pop-up-(white)-Icon" font-family="OpenSans-Regular, Open Sans" font-size="7" font-weight="normal" fill="#4A4A4A">
                <tspan x="19" y="309">Pop-up (white) Icon (9x9)</tspan>
                <tspan x="19" y="318">(x = 19, y = 338)</tspan>
            </text>
            <path d="M18.5,394.5 L740.58379,394.5" id="Line" stroke="#979797" opacity="0.4" stroke-linecap="square"></path>
            <text id="Breadcrumb-Current-I" font-family="OpenSans-Regular, Open Sans" font-size="7" font-weight="normal" fill="#4A4A4A">
                <tspan x="19" y="419">Breadcrumb Current Icon (12x12)</tspan>
                <tspan x="19" y="428">(x = 18, y = 454)</tspan>
            </text>
            <text id="Select-All-Icon-(12x" font-family="OpenSans-Regular, Open Sans" font-size="7" font-weight="normal" fill="#4A4A4A">
                <tspan x="139" y="419">Select All Icon (12x12)</tspan>
                <tspan x="139" y="428">(x = 140, y = 454)</tspan>
                <tspan x="139" y="437">(x = 170, y = 454)</tspan>
            </text>
            <text id="Pop-up-(blue)-Icon-(" font-family="OpenSans-Regular, Open Sans" font-size="7" font-weight="normal" fill="#4A4A4A">
                <tspan x="139" y="309">Pop-up (blue) Icon (9x9)</tspan>
                <tspan x="139" y="318">(x = 139, y = 338)</tspan>
            </text>
            <text id="Select-all-Icon-(12x" font-family="OpenSans-Regular, Open Sans" font-size="7" font-weight="normal" fill="#4A4A4A">
                <tspan x="259" y="309">Select all Icon (12x12)</tspan>
                <tspan x="259" y="318">(x = 259, y = 338)</tspan>
            </text>
            <text id="Tree-overview-Icon-(" font-family="OpenSans-Regular, Open Sans" font-size="7" font-weight="normal" fill="#4A4A4A">
                <tspan x="369" y="309">Tree overview Icon (18x12)</tspan>
                <tspan x="369" y="318">(x = 369, y = 338)</tspan>
            </text>
            <text id="Tree-overview-Icon-(" font-family="OpenSans-Regular, Open Sans" font-size="7" font-weight="normal" fill="#4A4A4A">
                <tspan x="489" y="309">Tree overview Icon (37x22)</tspan>
                <tspan x="489" y="318">(x = 489, y = 338)</tspan>
            </text>
            <text id="Gift-Button-(32x32)" font-family="OpenSans-Regular, Open Sans" font-size="7" font-weight="normal" fill="#4A4A4A">
                <tspan x="604" y="309">Gift Button (32x32)</tspan>
                <tspan x="604" y="318">(x = 604, y = 338)</tspan>
                <tspan x="604" y="327">(x = 645, y = 338)</tspan>
            </text>
            <g id="view-attachment_icon" transform="translate(489.000000, 338.000000)" fill="#FFFFFF" fill-rule="nonzero">
                <path d="M18.4997166,0 C9.64975871,0 2.20554577,5.11836504 0,11 C2.20554577,16.881635 9.64975871,22 18.4997166,22 C27.3496745,22 34.7938874,16.881635 37,11 C34.7938874,5.11836504 27.3496745,0 18.4997166,0 Z M18.4997166,17.9134315 C14.6633933,17.9134315 11.5531827,14.8186061 11.5531827,11 C11.5531827,7.18195805 14.6639602,4.08656854 18.4997166,4.08656854 C22.3371735,4.08656854 25.4468173,7.18195805 25.4468173,11 C25.4468173,14.8186061 22.3371735,17.9134315 18.4997166,17.9134315 Z M18.5847415,8.41909842 C17.1053083,8.41909842 15.9064573,9.61223652 15.9064573,11.0846197 C15.9064573,12.5570029 17.1053083,13.750141 18.5847415,13.750141 C20.0636078,13.750141 21.2630257,12.5570029 21.2630257,11.0846197 C21.2630257,9.61280066 20.0641746,8.41909842 18.5847415,8.41909842 Z" id="Shape"></path>
            </g>
            <g id="open-in-tab_icon" transform="translate(387.000000, 238.000000)" fill="#0052CC" fill-rule="nonzero">
                <path d="M8.15384615,9.99999985 L0.923076923,9.99999985 C0.413275616,9.99999985 0,9.59298598 0,9.09090894 L0,1.96969682 C-1.36642834e-16,1.46761977 0.413275616,1.06060591 0.923076923,1.06060591 L4.15384615,1.06060591 C4.32377992,1.06060591 4.46153846,1.1962772 4.46153846,1.36363621 C4.46153846,1.53099523 4.32377992,1.66666652 4.15384615,1.66666652 L0.923076923,1.66666652 C0.753143154,1.66666652 0.615384615,1.8023378 0.615384615,1.96969682 L0.615384615,9.09090894 C0.615384615,9.25826795 0.753143154,9.39393924 0.923076923,9.39393924 L8.15384615,9.39393924 C8.32377992,9.39393924 8.46153846,9.25826795 8.46153846,9.09090894 L8.46153846,5.90909076 C8.46153846,5.74173174 8.599297,5.60606045 8.76923077,5.60606045 C8.93916454,5.60606045 9.07692308,5.74173174 9.07692308,5.90909076 L9.07692308,9.09090894 C9.07692308,9.59298598 8.66364746,9.99999985 8.15384615,9.99999985 Z" id="Shape"></path>
                <path d="M7.10769231,0.768181667 C6.93775854,0.768181667 6.8,0.632510379 6.8,0.465151364 C6.8,0.297792349 6.93775854,0.162121061 7.10769231,0.162121061 L9.69230769,0.151515 C9.86224146,0.151515 10,0.287186288 10,0.454545303 C10,0.621904318 9.86224146,0.757575606 9.69230769,0.757575606 L7.10615385,0.768181667 L7.10769231,0.768181667 Z" id="Shape"></path>
                <path d="M9.69230769,3.63636348 C9.52237392,3.63636348 9.38461538,3.5006922 9.38461538,3.33333318 L9.37076923,0.642424091 C9.37076923,0.475065076 9.50852777,0.339393788 9.67846154,0.339393788 C9.84839531,0.339393788 9.98615385,0.475065076 9.98615385,0.642424091 L10,3.33333318 C10,3.5006922 9.86224146,3.63636348 9.69230769,3.63636348 Z" id="Shape"></path>
                <path d="M6.41076923,4.03939379 C6.32951615,4.03945765 6.25153584,4.00786665 6.19384615,3.951515 C6.1360686,3.89467613 6.10360411,3.81754811 6.10360411,3.73712106 C6.10360411,3.65669402 6.1360686,3.57956599 6.19384615,3.52272712 L9.21538462,0.546969545 C9.33675603,0.438270411 9.52337444,0.442467161 9.63958144,0.556509054 C9.75578845,0.670550946 9.76071034,0.854325798 9.65076923,0.974242273 L6.62769231,3.951515 C6.57000263,4.00786665 6.49202231,4.03945765 6.41076923,4.03939379 Z" id="Shape"></path>
            </g>
            <g id="plus_button" transform="translate(507.000000, 238.000000)" fill="#5E6C84" fill-rule="nonzero">
                <path d="M20,10 C20,10.4804348 19.6108696,10.8695652 19.1304348,10.8695652 L10.8695652,10.8695652 L10.8695652,19.1304348 C10.8695652,19.6104348 10.4804348,20 10,20 C9.51956522,20 9.13043478,19.6104348 9.13043478,19.1304348 L9.13043478,10.8695652 L0.869565217,10.8695652 C0.389130435,10.8695652 0,10.4804348 0,10 C0,9.51956522 0.389130435,9.13043478 0.869565217,9.13043478 L9.13043478,9.13043478 L9.13043478,0.869565217 C9.13043478,0.389130435 9.51956522,0 10,0 C10.4804348,0 10.8695652,0.389130435 10.8695652,0.869565217 L10.8695652,9.13043478 L19.1304348,9.13043478 C19.6108696,9.13043478 20,9.51956522 20,10 Z" id="Shape"></path>
            </g>
            <g id="noun_1135514_cc" transform="translate(603.000000, 238.000000)" fill="#42526E" fill-rule="nonzero">
                <path d="M29,14.5 C29,15.1966304 28.4357609,15.7608696 27.7391304,15.7608696 L15.7608696,15.7608696 L15.7608696,27.7391304 C15.7608696,28.4351304 15.1966304,29 14.5,29 C13.8033696,29 13.2391304,28.4351304 13.2391304,27.7391304 L13.2391304,15.7608696 L1.26086957,15.7608696 C0.56423913,15.7608696 0,15.1966304 0,14.5 C0,13.8033696 0.56423913,13.2391304 1.26086957,13.2391304 L13.2391304,13.2391304 L13.2391304,1.26086957 C13.2391304,0.56423913 13.8033696,0 14.5,0 C15.1966304,0 15.7608696,0.56423913 15.7608696,1.26086957 L15.7608696,13.2391304 L27.7391304,13.2391304 C28.4357609,13.2391304 29,13.8033696 29,14.5 Z" id="Shape"></path>
            </g>
            <g id="pop-up_icon" transform="translate(18.000000, 338.000000)" fill="#FFFFFF" fill-rule="nonzero">
                <path d="M2.37362637,0.03582 C2.20976845,0.0358363833 2.07693946,0.168665377 2.07692308,0.332523297 L2.07692308,6.66219363 C2.07693946,6.82605155 2.20976845,6.95888054 2.37362637,6.95889692 L8.7032967,6.95889692 C8.86715462,6.95888054 8.99998362,6.82605155 9,6.66219363 L9,0.332523297 C9.00081565,0.180012022 8.88588585,0.0517182985 8.7342033,0.03582 C8.72390809,0.0352831166 8.71359191,0.0352831166 8.7032967,0.03582 L2.37362637,0.03582 Z M2.67032967,0.629226593 L8.40659341,0.629226593 L8.40659341,6.36549033 L2.67032967,6.36549033 L2.67032967,0.629226593 Z M0.398695055,2.00766066 C0.318389532,2.00681486 0.241170589,2.03855583 0.184674822,2.09563403 C0.128179055,2.15271223 0.0972317179,2.23025265 0.0989010989,2.31054527 L0.0989010989,8.6402156 C0.0989174822,8.80407352 0.231746476,8.93690252 0.395604396,8.9369189 L6.72527473,8.9369189 C6.83227659,8.93843217 6.93180436,8.88221414 6.98574691,8.78979179 C7.03968945,8.69736944 7.03968945,8.58306177 6.98574691,8.49063942 C6.93180436,8.39821707 6.83227659,8.34199903 6.72527473,8.34351231 L0.692307692,8.34351231 L0.692307692,2.31054527 C0.693954593,2.23132466 0.663848406,2.15473601 0.60869646,2.09784242 C0.553544514,2.04094884 0.477928579,2.00847678 0.398695055,2.00766066 Z" id="Shape"></path>
            </g>
            <g id="select-all_button" transform="translate(259.000000, 338.000000)">
                <rect id="Rectangle-23-Copy-3" stroke="#42526E" x="0.5" y="0.5" width="11" height="11" rx="2"></rect>
                <path d="M9.37429045,4.91404137 L5.45583409,8.83249773 C5.30497621,8.98258592 5.10870704,9.05801486 4.91166818,9.05801486 C4.71462932,9.05801486 4.51759046,8.98258592 4.36750227,8.83249773 L2.62570955,7.09070501 C2.32476348,6.79052862 2.32476348,6.30331926 2.62570955,6.00237319 C2.92665562,5.70142712 3.4130953,5.70142712 3.71404137,6.00237319 L4.91166818,7.2 L8.28595863,3.82570955 C8.5869047,3.52476348 9.07334438,3.52476348 9.37429045,3.82570955 C9.67523652,4.12665562 9.67523652,4.6130953 9.37429045,4.91404137" id="Fill-1" fill="#42526E" fill-rule="nonzero"></path>
            </g>
            <g id="pop-up_icon" transform="translate(139.000000, 338.000000)" fill="#0052CC">
                <g id="noun_604101_cc">
                    <g id="Group" fill-rule="nonzero">
                        <path d="M2.37362637,0.03582 C2.20976845,0.0358363833 2.07693946,0.168665377 2.07692308,0.332523297 L2.07692308,6.66219363 C2.07693946,6.82605155 2.20976845,6.95888054 2.37362637,6.95889692 L8.7032967,6.95889692 C8.86715462,6.95888054 8.99998362,6.82605155 9,6.66219363 L9,0.332523297 C9.00081565,0.180012022 8.88588585,0.0517182985 8.7342033,0.03582 C8.72390809,0.0352831166 8.71359191,0.0352831166 8.7032967,0.03582 L2.37362637,0.03582 Z M2.67032967,0.629226593 L8.40659341,0.629226593 L8.40659341,6.36549033 L2.67032967,6.36549033 L2.67032967,0.629226593 Z M0.398695055,2.00766066 C0.318389532,2.00681486 0.241170589,2.03855583 0.184674822,2.09563403 C0.128179055,2.15271223 0.0972317179,2.23025265 0.0989010989,2.31054527 L0.0989010989,8.6402156 C0.0989174822,8.80407352 0.231746476,8.93690252 0.395604396,8.9369189 L6.72527473,8.9369189 C6.83227659,8.93843217 6.93180436,8.88221414 6.98574691,8.78979179 C7.03968945,8.69736944 7.03968945,8.58306177 6.98574691,8.49063942 C6.93180436,8.39821707 6.83227659,8.34199903 6.72527473,8.34351231 L0.692307692,8.34351231 L0.692307692,2.31054527 C0.693954593,2.23132466 0.663848406,2.15473601 0.60869646,2.09784242 C0.553544514,2.04094884 0.477928579,2.00847678 0.398695055,2.00766066 Z" id="Shape"></path>
                    </g>
                </g>
            </g>
            <g id="tree_icon" transform="translate(369.000000, 338.000000)" fill="#42526E" fill-rule="nonzero">
                <path d="M5.00922203,12 C5.55641359,12 6,11.5561352 6,11 C6,10.4477153 5.54902482,10 5.00922203,10 L0.990777969,10 C0.443586406,10 0,10.4438648 0,11 C0,11.5522847 0.45097518,12 0.990777969,12 L5.00922203,12 Z" id="Path"></path>
                <path d="M0,1 C0,1.55228475 0.444946289,2 0.993397683,2 L17.0066023,2 C17.5552407,2 18,1.55613518 18,1 C18,0.44771525 17.5550537,0 17.0066023,0 L0.993397683,0 C0.444759292,0 0,0.443864822 0,1 Z" id="Path"></path>
                <path d="M10.9975267,7 C11.5511774,7 12,6.55613518 12,6 C12,5.44771525 11.544239,5 10.9975267,5 L1.00247329,5 C0.448822582,5 0,5.44386482 0,6 C0,6.55228475 0.455760956,7 1.00247329,7 L10.9975267,7 Z" id="Path"></path>
            </g>
            <g id="gift_button" transform="translate(604.000000, 338.000000)">
                <g id="Background" stroke="#4C9AFF">
                    <rect id="bg" x="0" y="0" width="32" height="32" rx="3"></rect>
                </g>
                <g id="gift_icon" transform="translate(6.400000, 5.333333)" fill="#4C9AFF">
                    <g id="noun_73228_cc">
                        <path d="M0.395041667,8.70833333 L7.915875,8.70833333 L7.915875,5.54166667 L8.70754167,5.54166667 L8.70754167,8.70833333 L10.290875,8.70833333 L10.290875,5.54166667 L11.0825417,5.54166667 L11.0825417,8.70833333 L18.603375,8.70833333 C18.821875,8.70833333 18.9992083,8.531 18.9992083,8.3125 L18.9992083,5.14583333 C18.9992083,4.92733333 18.821875,4.75 18.603375,4.75 L12.9762083,4.75 C13.8185417,4.01533333 14.6125833,2.89908333 14.6125833,1.9665 C14.6125833,0.716458333 13.8312083,0 12.46875,0 C11.8710417,0 10.2530729,0.216125 9.5,2.39083333 C8.747125,0.216916667 7.12895833,0 6.53125,0 C5.16879167,0 4.38741667,0.716458333 4.38741667,1.9665 C4.38741667,2.89908333 5.18066667,4.01533333 6.02458333,4.75 L0.396625,4.75 C0.178125,4.75 0.000791666667,4.92733333 0.000791666667,5.14583333 L0.000791666667,8.3125 C-0.000791666667,8.531 0.176541667,8.70833333 0.395041667,8.70833333 Z M12.4679583,0.791666667 C13.6675312,0.791666667 13.820125,1.41945833 13.820125,1.9665 C13.820125,3.09304167 12.0380833,4.75 11.478375,4.75 L9.90711458,4.75 C10.0264583,1.197 11.7224062,0.791666667 12.4679583,0.791666667 Z M5.17829167,1.9665 C5.17829167,1.41945833 5.331875,0.791666667 6.53045833,0.791666667 C7.27620833,0.791666667 8.97195833,1.197 9.0915,4.75 L7.52004167,4.75 C6.95954167,4.75 5.17829167,3.09304167 5.17829167,1.9665 Z" id="Shape" fill-rule="nonzero"></path>
                        <path d="M7.915875,9.5 L0.790875,9.5 L0.790875,18.6041667 C0.790875,18.8226667 0.968208333,19 1.18670833,19 L7.915875,19 L7.915875,9.5 Z" id="Shape" fill-rule="nonzero"></path>
                        <path d="M11.0825417,9.5 L11.0825417,19 L17.8117083,19 C18.0302083,19 18.2075417,18.8226667 18.2075417,18.6041667 L18.2075417,9.5 L11.0825417,9.5 Z" id="Shape" fill-rule="nonzero"></path>
                        <polygon id="Shape" fill-rule="nonzero" points="8.70754167 9.5 10.290875 9.5 10.290875 19 8.70754167 19"></polygon>
                    </g>
                </g>
            </g>
            <g id="gift_button" transform="translate(645.000000, 338.000000)">
                <g id="Background" fill="#4C9AFF" stroke="#4C9AFF">
                    <rect id="bg" x="0" y="0" width="32" height="32" rx="3"></rect>
                </g>
                <g id="noun_73228_cc" transform="translate(6.400000, 5.333333)" fill="#FFFFFF" fill-rule="nonzero">
                    <path d="M0.3992,8.8 L7.9992,8.8 L7.9992,5.6 L8.7992,5.6 L8.7992,8.8 L10.3992,8.8 L10.3992,5.6 L11.1992,5.6 L11.1992,8.8 L18.7992,8.8 C19.02,8.8 19.1992,8.6208 19.1992,8.4 L19.1992,5.2 C19.1992,4.9792 19.02,4.8 18.7992,4.8 L13.1128,4.8 C13.964,4.0576 14.7664,2.9296 14.7664,1.9872 C14.7664,0.724 13.9768,0 12.6,0 C11.996,0 10.361,0.2184 9.6,2.416 C8.8392,0.2192 7.204,0 6.6,0 C5.2232,0 4.4336,0.724 4.4336,1.9872 C4.4336,2.9296 5.2352,4.0576 6.088,4.8 L0.4008,4.8 C0.18,4.8 0.0008,4.9792 0.0008,5.2 L0.0008,8.4 C-0.0008,8.6208 0.1784,8.8 0.3992,8.8 Z M12.5992,0.8 C13.8114,0.8 13.9656,1.4344 13.9656,1.9872 C13.9656,3.1256 12.1648,4.8 11.5992,4.8 L10.0114,4.8 C10.132,1.2096 11.8458,0.8 12.5992,0.8 Z M5.2328,1.9872 C5.2328,1.4344 5.388,0.8 6.5992,0.8 C7.3528,0.8 9.0664,1.2096 9.1872,4.8 L7.5992,4.8 C7.0328,4.8 5.2328,3.1256 5.2328,1.9872 Z" id="Shape"></path>
                    <path d="M7.9992,9.6 L0.7992,9.6 L0.7992,18.8 C0.7992,19.0208 0.9784,19.2 1.1992,19.2 L7.9992,19.2 L7.9992,9.6 Z" id="Shape"></path>
                    <path d="M11.1992,9.6 L11.1992,19.2 L17.9992,19.2 C18.22,19.2 18.3992,19.0208 18.3992,18.8 L18.3992,9.6 L11.1992,9.6 Z" id="Shape"></path>
                    <polygon id="Shape" points="8.7992 9.6 10.3992 9.6 10.3992 19.2 8.7992 19.2"></polygon>
                </g>
            </g>
            <g id="Group-2" transform="translate(140.000000, 454.000000)">
                <g id="Tick-Icon" transform="translate(2.400000, 3.600000)">
                    <mask id="mask-2" fill="white">
                        <use xlink:href="#path-1"></use>
                    </mask>
                    <g id="Clip-2"></g>
                </g>
                <g id="Group">
                    <rect id="Rectangle-23-Copy-3" stroke="#42526E" x="0.5" y="0.5" width="11" height="11" rx="2"></rect>
                    <path d="M9.37429045,4.91404137 L5.45583409,8.83249773 C5.30497621,8.98258592 5.10870704,9.05801486 4.91166818,9.05801486 C4.71462932,9.05801486 4.51759046,8.98258592 4.36750227,8.83249773 L2.62570955,7.09070501 C2.32476348,6.79052862 2.32476348,6.30331926 2.62570955,6.00237319 C2.92665562,5.70142712 3.4130953,5.70142712 3.71404137,6.00237319 L4.91166818,7.2 L8.28595863,3.82570955 C8.5869047,3.52476348 9.07334438,3.52476348 9.37429045,3.82570955 C9.67523652,4.12665562 9.67523652,4.6130953 9.37429045,4.91404137" id="Fill-1" fill="#42526E"></path>
                </g>
            </g>
            <g id="Group-2" transform="translate(170.000000, 454.000000)">
                <g id="Tick-Icon" transform="translate(2.400000, 3.600000)">
                    <mask id="mask-4" fill="white">
                        <use xlink:href="#path-3"></use>
                    </mask>
                    <g id="Clip-2"></g>
                </g>
                <g id="Group">
                    <rect id="Rectangle-23-Copy-3" stroke="#A5ADBA" x="0.5" y="0.5" width="11" height="11" rx="2"></rect>
                    <path d="M9.37429045,4.91404137 L5.45583409,8.83249773 C5.30497621,8.98258592 5.10870704,9.05801486 4.91166818,9.05801486 C4.71462932,9.05801486 4.51759046,8.98258592 4.36750227,8.83249773 L2.62570955,7.09070501 C2.32476348,6.79052862 2.32476348,6.30331926 2.62570955,6.00237319 C2.92665562,5.70142712 3.4130953,5.70142712 3.71404137,6.00237319 L4.91166818,7.2 L8.28595863,3.82570955 C8.5869047,3.52476348 9.07334438,3.52476348 9.37429045,3.82570955 C9.67523652,4.12665562 9.67523652,4.6130953 9.37429045,4.91404137" id="Fill-1" fill="#A5ADBA"></path>
                </g>
            </g>
            <g id="breadcrumb-selection_icon" transform="translate(18.000000, 454.000000)" fill-rule="nonzero">
                <rect id="Rectangle-23-Copy-3" fill="#4C9AFF" x="0" y="0" width="12" height="12" rx="6"></rect>
                <path d="M9.37429045,4.91404137 L5.45583409,8.83249773 C5.30497621,8.98258592 5.10870704,9.05801486 4.91166818,9.05801486 C4.71462932,9.05801486 4.51759046,8.98258592 4.36750227,8.83249773 L2.62570955,7.09070501 C2.32476348,6.79052862 2.32476348,6.30331926 2.62570955,6.00237319 C2.92665562,5.70142712 3.4130953,5.70142712 3.71404137,6.00237319 L4.91166818,7.2 L8.28595863,3.82570955 C8.5869047,3.52476348 9.07334438,3.52476348 9.37429045,3.82570955 C9.67523652,4.12665562 9.67523652,4.6130953 9.37429045,4.91404137" id="Fill-1" fill="#FFFFFF"></path>
            </g>
        </g>
    </g>
</svg>